SplineFontDB: 3.0
FontName: XaphoonTab
FullName: XaphoonTab
FamilyName: XaphoonTab
Weight: Medium
Copyright: Created by Herve LAURENT, with FontForge 2.0 (http://fontforge.sf.net) pour le plugin XaphoonTab de MuseScore. Licence SIL OFL  (update 4) 
UComments: "2016-1-10: Created." 
Version: 001.2
ItalicAngle: 0
UnderlinePosition: -100
UnderlineWidth: 50
Ascent: 800
Descent: 200
LayerCount: 2
Layer: 0 0 "Arri+AOgA-re"  1
Layer: 1 0 "Avant"  0
XUID: [1021 761 273838446 12425608]
FSType: 0
OS2Version: 0
OS2_WeightWidthSlopeOnly: 0
OS2_UseTypoMetrics: 1
CreationTime: 1452413066
ModificationTime: 1452450807
PfmFamily: 17
TTFWeight: 500
TTFWidth: 5
LineGap: 90
VLineGap: 90
OS2TypoAscent: 0
OS2TypoAOffset: 1
OS2TypoDescent: 0
OS2TypoDOffset: 1
OS2TypoLinegap: 90
OS2WinAscent: 0
OS2WinAOffset: 1
OS2WinDescent: 0
OS2WinDOffset: 1
HheadAscent: 0
HheadAOffset: 1
HheadDescent: 0
HheadDOffset: 1
OS2Vendor: 'PfEd'
MarkAttachClasses: 1
DEI: 91125

StartChar: a
Encoding: 97 97 0
Width: 263
VWidth: -2419
Flags: W
HStem: -180 19<169 189.956> -74 19<149.539 196.165> 13 6<160.158 183.111> 33 18<150.097 195.301> 119 6<160.327 183.819> 121 2<150 151> 139 18<150.097 195.301> 225 7<159.784 184.922> 227 2<150 151> 298 18<150.097 195.301> 385 6<154.085 182.95> 386 2<150 151> 400 18<150.097 195.301> 486 7<159.784 184.922> 488 2<150 151> 502 18<150.317 195.301> 588 6<160.327 183.819> 595 93<62.3772 128.063> 688 93<147.376 208.575>
VStem: 40 96<603.433 677.025> 125 10<-138.499 -124.127 -35.4932 -3.91954 70.312 102.942 176.312 208.942 335.312 367.942 437.312 469.942 539.534 570.513> 204 16<-152.578 -129 -45.4258 -1.7704 60.3412 104.23 166.341 210.23 325.341 369.421 427.341 471.23 529.341 573.23>
LayerCount: 2
Fore
SplineSet
88 595 m 0xf249d4
 59 595 40 620 40 643 c 0xf249d4
 40 660 48 676 63 685 c 0
 65 686 74 689 66 683 c 1
 55 682 64 674 62 679 c 1
 70 684 81 688 91 688 c 0
 104 688 116 683 125 671 c 0xf249cc
 133 661 136 650 136 640 c 0
 136 614 113 595 88 595 c 0xf249d4
173 400 m 0
 144 400 125 425 125 448 c 0
 125 465 133 481 148 490 c 0
 150 491 159 494 151 488 c 0
 150 488 l 0xf24b8c
 143 488 135 468 135 453 c 0
 135 431 160 418 175 418 c 0
 190 418 204 430 204 448 c 0
 204 468 192 486 170 486 c 0
 164 486 159 484 156 477 c 1
 148 477 149 479 147 484 c 1
 155 489 165 493 175 493 c 0xf24d8c
 187 493 200 488 209 476 c 0
 217 465 220 455 220 445 c 0
 220 420 198 400 173 400 c 0
173 298 m 0
 144 298 125 323 125 346 c 0
 125 363 133 379 148 388 c 0
 150 389 159 392 151 386 c 0
 150 386 l 0xf2598c
 143 386 135 366 135 351 c 0
 135 329 160 316 175 316 c 0
 190 316 204 328 204 346 c 0
 204 366 191 385 169 385 c 0
 163 385 159 383 156 376 c 1
 148 376 149 377 147 382 c 1
 155 387 165 391 175 391 c 0xf2698c
 187 391 200 386 209 374 c 0
 217 363 220 353 220 343 c 0
 220 318 198 298 173 298 c 0
173 502 m 0
 145 502 125 527 125 549 c 0
 125 565 133 582 148 591 c 0
 150 592 159 596 151 590 c 0
 150 590 l 0
 143 590 135 570 135 555 c 0
 135 533 160 520 175 520 c 0
 190 520 204 532 204 550 c 0
 204 570 192 588 170 588 c 0
 164 588 159 586 156 579 c 1
 148 579 149 580 147 585 c 1
 155 591 166 594 176 594 c 0
 188 594 200 589 209 578 c 0
 217 567 220 557 220 547 c 0
 220 522 198 502 173 502 c 0
173 688 m 0xf249ac
 144 688 125 713 125 736 c 0
 125 753 133 769 148 778 c 0
 150 779 159 782 151 776 c 1
 140 775 149 767 147 772 c 1
 155 777 165 781 175 781 c 0
 187 781 200 776 209 764 c 0
 217 753 220 743 220 733 c 0
 220 708 198 688 173 688 c 0xf249ac
173 139 m 0
 144 139 125 164 125 187 c 0
 125 204 133 220 148 229 c 0
 150 230 159 233 151 227 c 0
 150 227 l 0xf2c98c
 143 227 135 207 135 192 c 0
 135 170 160 157 175 157 c 0
 190 157 204 169 204 187 c 0
 204 207 192 225 170 225 c 0
 164 225 159 223 156 216 c 1
 148 216 149 218 147 223 c 1
 155 228 165 232 175 232 c 0xf3498c
 187 232 200 227 209 215 c 0
 217 204 220 194 220 184 c 0
 220 159 198 139 173 139 c 0
173 33 m 0
 144 33 125 58 125 81 c 0
 125 98 133 114 148 123 c 0
 150 124 159 127 151 121 c 0
 150 121 l 0xf6498c
 143 121 135 101 135 86 c 0
 135 64 160 51 175 51 c 0
 190 51 204 63 204 81 c 0
 204 101 192 119 170 119 c 0
 164 119 159 117 156 110 c 1
 148 110 149 111 147 116 c 1
 155 122 166 125 176 125 c 0xfa498c
 188 125 200 120 209 109 c 0
 217 98 220 88 220 78 c 0
 220 53 198 33 173 33 c 0
172 -74 m 0
 144 -74 125 -48 125 -26 c 0
 125 -9 133 7 148 16 c 0
 150 17 159 21 151 15 c 0
 150 15 l 0
 143 15 135 -5 135 -20 c 0
 135 -42 160 -55 175 -55 c 0
 190 -55 204 -43 204 -25 c 0
 204 -5 191 13 169 13 c 0
 163 13 159 11 156 4 c 1
 148 4 149 5 147 10 c 1
 155 16 166 19 176 19 c 0
 188 19 200 14 209 3 c 0
 217 -8 220 -18 220 -28 c 0
 220 -54 197 -74 172 -74 c 0
173 -180 m 0
 144 -180 125 -155 125 -132 c 0xf2498c
 125 -115 133 -99 148 -90 c 0
 150 -89 159 -86 151 -92 c 1
 143 -94 136 -106 136 -118 c 1xf24994
 140 -112 141 -110 148 -99 c 0
 148 -98 148 -97 147 -96 c 1
 155 -91 165 -88 175 -88 c 0
 188 -88 200 -92 209 -104 c 0
 217 -115 220 -125 220 -135 c 0
 220 -160 198 -180 173 -180 c 0
170 -93 m 1
 170 -93 159 -95 156 -102 c 0
 155 -102 154 -102 153 -102 c 0
 147 -110 142 -121 136 -130 c 1xf24994
 136 -133 138 -139 138 -139 c 1
 147 -128 161 -108 170 -93 c 1
176 -94 m 1
 165 -110 151 -131 142 -144 c 1
 144 -147 147 -150 150 -152 c 1
 161 -134 171 -114 182 -96 c 1
 180 -95 178 -95 176 -94 c 1
188 -99 m 1
 178 -114 166 -137 155 -156 c 1
 157 -157 160 -159 162 -160 c 1
 171 -143 181 -126 194 -104 c 1
 192 -102 190 -100 188 -99 c 1
198 -109 m 1
 190 -123 179 -145 169 -161 c 1
 172 -161 175 -162 178 -162 c 1
 186 -148 192 -134 202 -118 c 1
 201 -115 200 -112 198 -109 c 1
186 -160 m 1
 195 -156 204 -146 204 -133 c 0
 204 -132 204 -130 204 -129 c 1
 200 -138 194 -149 186 -160 c 1
EndSplineSet
Validated: 1
EndChar

StartChar: A
Encoding: 65 65 1
Width: 263
VWidth: -2419
Flags: W
HStem: -180 19<169 189.956> -74 19<149.539 196.165> 13 6<160.158 183.111> 33 18<150.097 195.301> 119 6<160.327 183.819> 121 2<150 151> 139 18<150.097 195.301> 225 7<159.784 184.922> 227 2<150 151> 298 93<147.376 208.575> 400 93<147.376 208.575> 502 92<148.099 208.576> 595 18<65.0967 111.366> 681 7<74.7888 100.541> 683 2<62.3457 66> 688 93<147.376 208.575>
VStem: 40 10<632.312 664.942> 125 10<-138.499 -124.127 -35.4932 -3.91954 70.312 102.942 176.312 208.942> 204 16<-152.578 -129 -45.4258 -1.7704 60.3412 104.23 166.341 210.23>
LayerCount: 2
Fore
SplineSet
173 688 m 0xf279e0
 144 688 125 713 125 736 c 0
 125 753 133 769 148 778 c 0
 150 779 159 782 151 776 c 1
 140 775 149 767 147 772 c 1
 155 777 165 781 175 781 c 0
 187 781 200 776 209 764 c 0
 217 753 220 743 220 733 c 0
 220 708 198 688 173 688 c 0xf279e0
173 139 m 0
 144 139 125 164 125 187 c 0
 125 204 133 220 148 229 c 0
 150 230 159 233 151 227 c 0
 150 227 l 0xf2f8e0
 143 227 135 207 135 192 c 0
 135 170 160 157 175 157 c 0
 190 157 204 169 204 187 c 0
 204 207 192 225 170 225 c 0
 164 225 159 223 156 216 c 1
 148 216 149 218 147 223 c 1
 155 228 165 232 175 232 c 0xf378e0
 187 232 200 227 209 215 c 0
 217 204 220 194 220 184 c 0
 220 159 198 139 173 139 c 0
173 33 m 0
 144 33 125 58 125 81 c 0
 125 98 133 114 148 123 c 0
 150 124 159 127 151 121 c 0
 150 121 l 0xf678e0
 143 121 135 101 135 86 c 0
 135 64 160 51 175 51 c 0
 190 51 204 63 204 81 c 0
 204 101 192 119 170 119 c 0
 164 119 159 117 156 110 c 1
 148 110 149 111 147 116 c 1
 155 122 166 125 176 125 c 0xfa78e0
 188 125 200 120 209 109 c 0
 217 98 220 88 220 78 c 0
 220 53 198 33 173 33 c 0
172 -74 m 0
 144 -74 125 -48 125 -26 c 0
 125 -9 133 7 148 16 c 0
 150 17 159 21 151 15 c 0
 150 15 l 0
 143 15 135 -5 135 -20 c 0
 135 -42 160 -55 175 -55 c 0
 190 -55 204 -43 204 -25 c 0
 204 -5 191 13 169 13 c 0
 163 13 159 11 156 4 c 1
 148 4 149 5 147 10 c 1
 155 16 166 19 176 19 c 0
 188 19 200 14 209 3 c 0
 217 -8 220 -18 220 -28 c 0
 220 -54 197 -74 172 -74 c 0
173 502 m 0
 145 502 125 527 125 549 c 0
 125 565 133 582 148 591 c 0
 150 592 159 596 151 590 c 1
 140 589 149 580 147 585 c 1
 155 591 166 594 176 594 c 0
 188 594 200 589 209 578 c 0
 217 567 220 557 220 547 c 0
 220 522 198 502 173 502 c 0
173 400 m 0
 144 400 125 425 125 448 c 0
 125 465 133 481 148 490 c 0
 150 491 159 494 151 488 c 1
 140 487 149 479 147 484 c 1
 155 489 165 493 175 493 c 0
 187 493 200 488 209 476 c 0
 217 465 220 455 220 445 c 0
 220 420 198 400 173 400 c 0
173 298 m 0
 144 298 125 323 125 346 c 0
 125 363 133 379 148 388 c 0
 150 389 159 392 151 386 c 1
 140 385 149 377 147 382 c 1
 155 387 165 391 175 391 c 0
 187 391 200 386 209 374 c 0
 217 363 220 353 220 343 c 0
 220 318 198 298 173 298 c 0
173 -180 m 0
 144 -180 125 -155 125 -132 c 0
 125 -115 133 -99 148 -90 c 0
 150 -89 159 -86 151 -92 c 1
 143 -94 136 -106 136 -118 c 1
 140 -112 141 -110 148 -99 c 0
 148 -98 148 -97 147 -96 c 1
 155 -91 165 -88 175 -88 c 0
 188 -88 200 -92 209 -104 c 0
 217 -115 220 -125 220 -135 c 0
 220 -160 198 -180 173 -180 c 0
170 -93 m 1
 170 -93 159 -95 156 -102 c 0
 155 -102 154 -102 153 -102 c 0
 147 -110 142 -121 136 -130 c 1
 136 -133 138 -139 138 -139 c 1
 147 -128 161 -108 170 -93 c 1
176 -94 m 1
 165 -110 151 -131 142 -144 c 1
 144 -147 147 -150 150 -152 c 1
 161 -134 171 -114 182 -96 c 1
 180 -95 178 -95 176 -94 c 1
188 -99 m 1
 178 -114 166 -137 155 -156 c 1
 157 -157 160 -159 162 -160 c 1
 171 -143 181 -126 194 -104 c 1
 192 -102 190 -100 188 -99 c 1
198 -109 m 1
 190 -123 179 -145 169 -161 c 1
 172 -161 175 -162 178 -162 c 1
 186 -148 192 -134 202 -118 c 1
 201 -115 200 -112 198 -109 c 1
186 -160 m 1
 195 -156 204 -146 204 -133 c 0
 204 -132 204 -130 204 -129 c 1
 200 -138 194 -149 186 -160 c 1
88 595 m 0
 59 595 40 620 40 643 c 0
 40 660 48 676 63 685 c 0
 65 686 74 689 66 683 c 0
 65 683 l 0xf27ae0
 58 683 50 663 50 648 c 0
 50 626 75 613 90 613 c 0
 106 613 120 625 120 644 c 0
 120 664 107 681 85 681 c 0
 79 681 74 679 71 672 c 1
 63 672 64 674 62 679 c 1
 70 684 81 688 91 688 c 0xf27ce0
 104 688 116 683 125 671 c 0
 133 661 136 650 136 640 c 0
 136 614 113 595 88 595 c 0
EndSplineSet
Validated: 1
EndChar

StartChar: B
Encoding: 66 66 2
Width: 265
VWidth: -2419
Flags: W
HStem: -180 18<150.068 197.035> -94 7<151 152.363 165.231 187.051> -74 93<149.099 209.576> 33 92<149.099 209.576> 139 93<148.376 209.575> 298 18<150.068 197.035> 384 7<151 152.363 165.231 187.051> 400 93<148.376 209.575> 502 92<149.099 209.576> 595 93<63.3772 129.063> 688 93<148.376 209.575>
VStem: 41 96<603.433 677.025> 126 10<-143.081 -110.058 334.919 367.942> 205 16<-152.915 -108.651 325.085 369.349>
LayerCount: 2
Fore
SplineSet
89 595 m 0xffd4
 60 595 41 620 41 643 c 0xffd4
 41 660 49 676 64 685 c 0
 66 686 75 689 67 683 c 1
 56 682 65 674 63 679 c 1
 71 684 82 688 92 688 c 0
 105 688 117 683 126 671 c 0xffcc
 134 661 137 650 137 640 c 0
 137 614 114 595 89 595 c 0xffd4
174 688 m 0xffac
 145 688 126 713 126 736 c 0
 126 753 134 769 149 778 c 0
 151 779 160 782 152 776 c 1
 141 775 150 767 148 772 c 1
 156 777 166 781 176 781 c 0
 188 781 201 776 210 764 c 0
 218 753 221 743 221 733 c 0
 221 708 199 688 174 688 c 0xffac
174 502 m 0
 146 502 126 527 126 549 c 0
 126 565 134 582 149 591 c 0
 151 592 160 596 152 590 c 1
 141 589 150 580 148 585 c 1
 156 591 167 594 177 594 c 0
 189 594 201 589 210 578 c 0
 218 567 221 557 221 547 c 0
 221 522 199 502 174 502 c 0
174 400 m 0
 145 400 126 425 126 448 c 0
 126 465 134 481 149 490 c 0
 151 491 160 494 152 488 c 1
 141 487 150 479 148 484 c 1
 156 489 166 493 176 493 c 0
 188 493 201 488 210 476 c 0
 218 465 221 455 221 445 c 0
 221 420 199 400 174 400 c 0
174 33 m 0
 145 33 126 58 126 81 c 0
 126 98 134 114 149 123 c 0
 151 124 160 127 152 121 c 1
 141 120 150 111 148 116 c 1
 156 122 167 125 177 125 c 0
 189 125 201 120 210 109 c 0
 218 98 221 88 221 78 c 0
 221 53 199 33 174 33 c 0
173 -74 m 0
 145 -74 126 -48 126 -26 c 0
 126 -9 134 7 149 16 c 0
 151 17 160 21 152 15 c 1
 141 14 150 5 148 10 c 1
 156 16 167 19 177 19 c 0
 189 19 201 14 210 3 c 0
 218 -8 221 -18 221 -28 c 0
 221 -54 198 -74 173 -74 c 0
177 -162 m 0
 192 -162 205 -150 205 -132 c 0
 205 -122 202 -111 195 -104 c 0
 192 -101 185 -94 177 -94 c 27
 169 -94 157 -102 157 -102 c 1
 149 -102 150 -101 148 -96 c 1
 156 -91 166 -87 176 -87 c 0
 188 -87 201 -92 210 -104 c 0
 218 -115 221 -125 221 -135 c 0
 221 -160 199 -180 174 -180 c 0
 145 -180 126 -155 126 -132 c 0
 126 -115 134 -99 149 -90 c 0
 151 -89 160 -86 152 -92 c 0
 151 -92 l 0
 144 -92 136 -112 136 -127 c 0
 136 -149 158 -162 177 -162 c 0
177 316 m 0
 192 316 205 328 205 346 c 0
 205 356 202 367 195 374 c 0
 192 377 185 384 177 384 c 27
 169 384 157 376 157 376 c 1
 149 376 150 377 148 382 c 1
 156 387 166 391 176 391 c 0
 188 391 201 386 210 374 c 0
 218 363 221 353 221 343 c 0
 221 318 199 298 174 298 c 0
 145 298 126 323 126 346 c 0
 126 363 134 379 149 388 c 0
 151 389 160 392 152 386 c 0
 151 386 l 0
 144 386 136 366 136 351 c 0
 136 329 158 316 177 316 c 0
174 139 m 0
 145 139 126 164 126 187 c 0
 126 204 134 220 149 229 c 0
 151 230 160 233 152 227 c 1
 141 226 150 218 148 223 c 1
 156 228 166 232 176 232 c 0
 188 232 201 227 210 215 c 0
 218 204 221 194 221 184 c 0
 221 159 199 139 174 139 c 0
EndSplineSet
Validated: 1
EndChar

StartChar: F
Encoding: 70 70 3
Width: 263
VWidth: -2419
Flags: W
HStem: -180 19<169 189.956> -74 19<149.539 196.165> 13 6<160.158 183.111> 33 18<150.097 195.301> 119 6<160.327 183.819> 121 2<150 151> 139 18<150.097 195.301> 225 7<159.784 184.922> 227 2<150 151> 298 18<150.097 195.301> 385 6<154.085 182.95> 386 2<150 151> 400 18<150.097 195.301> 486 7<159.784 184.922> 488 2<150 151> 502 18<150.317 195.301> 588 6<160.327 183.819> 595 18<65.0967 111.366> 681 7<74.7888 100.541> 683 2<62.3457 66> 688 18<150.097 195.301> 774 7<159.784 184.922> 776 2<150 151>
VStem: 40 10<632.312 664.942> 125 10<-138.499 -124.127 -35.4932 -3.91954 70.312 102.942 176.312 208.942 335.312 367.942 437.312 469.942 539.534 570.513 725.312 757.942> 204 16<-152.578 -129 -45.4258 -1.7704 60.3412 104.23 166.341 210.23 325.341 369.421 427.341 471.23 529.341 573.23 715.341 759.23>
LayerCount: 2
Fore
SplineSet
173 400 m 0xf24dc1c0
 144 400 125 425 125 448 c 0
 125 465 133 481 148 490 c 0
 150 491 159 494 151 488 c 0
 150 488 l 0xf24bc1c0
 143 488 135 468 135 453 c 0
 135 431 160 418 175 418 c 0
 190 418 204 430 204 448 c 0
 204 468 192 486 170 486 c 0
 164 486 159 484 156 477 c 1
 148 477 149 479 147 484 c 1
 155 489 165 493 175 493 c 0
 187 493 200 488 209 476 c 0
 217 465 220 455 220 445 c 0
 220 420 198 400 173 400 c 0xf24dc1c0
173 298 m 0
 144 298 125 323 125 346 c 0
 125 363 133 379 148 388 c 0
 150 389 159 392 151 386 c 0
 150 386 l 0xf259c1c0
 143 386 135 366 135 351 c 0
 135 329 160 316 175 316 c 0
 190 316 204 328 204 346 c 0
 204 366 191 385 169 385 c 0
 163 385 159 383 156 376 c 1
 148 376 149 377 147 382 c 1
 155 387 165 391 175 391 c 0xf269c1c0
 187 391 200 386 209 374 c 0
 217 363 220 353 220 343 c 0
 220 318 198 298 173 298 c 0
173 502 m 0
 145 502 125 527 125 549 c 0
 125 565 133 582 148 591 c 0
 150 592 159 596 151 590 c 0
 150 590 l 0
 143 590 135 570 135 555 c 0
 135 533 160 520 175 520 c 0
 190 520 204 532 204 550 c 0
 204 570 192 588 170 588 c 0
 164 588 159 586 156 579 c 1
 148 579 149 580 147 585 c 1
 155 591 166 594 176 594 c 0
 188 594 200 589 209 578 c 0
 217 567 220 557 220 547 c 0
 220 522 198 502 173 502 c 0
173 688 m 0xf249cdc0
 144 688 125 713 125 736 c 0
 125 753 133 769 148 778 c 0
 150 779 159 782 151 776 c 0
 150 776 l 0xf249cbc0
 143 776 135 756 135 741 c 0
 135 719 160 706 175 706 c 0
 190 706 204 718 204 736 c 0
 204 756 192 774 170 774 c 0
 164 774 159 772 156 765 c 1
 148 765 149 767 147 772 c 1
 155 777 165 781 175 781 c 0
 187 781 200 776 209 764 c 0
 217 753 220 743 220 733 c 0
 220 708 198 688 173 688 c 0xf249cdc0
88 595 m 0
 59 595 40 620 40 643 c 0
 40 660 48 676 63 685 c 0
 65 686 74 689 66 683 c 0
 65 683 l 0xf249d1c0
 58 683 50 663 50 648 c 0
 50 626 75 613 90 613 c 0
 106 613 120 625 120 644 c 0
 120 664 107 681 85 681 c 0
 79 681 74 679 71 672 c 1
 63 672 64 674 62 679 c 1
 70 684 81 688 91 688 c 0xf249e1c0
 104 688 116 683 125 671 c 0
 133 661 136 650 136 640 c 0
 136 614 113 595 88 595 c 0
173 139 m 0
 144 139 125 164 125 187 c 0
 125 204 133 220 148 229 c 0
 150 230 159 233 151 227 c 0
 150 227 l 0xf2c9c1c0
 143 227 135 207 135 192 c 0
 135 170 160 157 175 157 c 0
 190 157 204 169 204 187 c 0
 204 207 192 225 170 225 c 0
 164 225 159 223 156 216 c 1
 148 216 149 218 147 223 c 1
 155 228 165 232 175 232 c 0xf349c1c0
 187 232 200 227 209 215 c 0
 217 204 220 194 220 184 c 0
 220 159 198 139 173 139 c 0
173 33 m 0
 144 33 125 58 125 81 c 0
 125 98 133 114 148 123 c 0
 150 124 159 127 151 121 c 0
 150 121 l 0xf649c1c0
 143 121 135 101 135 86 c 0
 135 64 160 51 175 51 c 0
 190 51 204 63 204 81 c 0
 204 101 192 119 170 119 c 0
 164 119 159 117 156 110 c 1
 148 110 149 111 147 116 c 1
 155 122 166 125 176 125 c 0xfa49c1c0
 188 125 200 120 209 109 c 0
 217 98 220 88 220 78 c 0
 220 53 198 33 173 33 c 0
172 -74 m 0
 144 -74 125 -48 125 -26 c 0
 125 -9 133 7 148 16 c 0
 150 17 159 21 151 15 c 0
 150 15 l 0
 143 15 135 -5 135 -20 c 0
 135 -42 160 -55 175 -55 c 0
 190 -55 204 -43 204 -25 c 0
 204 -5 191 13 169 13 c 0
 163 13 159 11 156 4 c 1
 148 4 149 5 147 10 c 1
 155 16 166 19 176 19 c 0
 188 19 200 14 209 3 c 0
 217 -8 220 -18 220 -28 c 0
 220 -54 197 -74 172 -74 c 0
173 -180 m 0
 144 -180 125 -155 125 -132 c 0
 125 -115 133 -99 148 -90 c 0
 150 -89 159 -86 151 -92 c 1
 143 -94 136 -106 136 -118 c 1
 140 -112 141 -110 148 -99 c 0
 148 -98 148 -97 147 -96 c 1
 155 -91 165 -88 175 -88 c 0
 188 -88 200 -92 209 -104 c 0
 217 -115 220 -125 220 -135 c 0
 220 -160 198 -180 173 -180 c 0
170 -93 m 1
 170 -93 159 -95 156 -102 c 0
 155 -102 154 -102 153 -102 c 0
 147 -110 142 -121 136 -130 c 1
 136 -133 138 -139 138 -139 c 1
 147 -128 161 -108 170 -93 c 1
176 -94 m 1
 165 -110 151 -131 142 -144 c 1
 144 -147 147 -150 150 -152 c 1
 161 -134 171 -114 182 -96 c 1
 180 -95 178 -95 176 -94 c 1
188 -99 m 1
 178 -114 166 -137 155 -156 c 1
 157 -157 160 -159 162 -160 c 1
 171 -143 181 -126 194 -104 c 1
 192 -102 190 -100 188 -99 c 1
198 -109 m 1
 190 -123 179 -145 169 -161 c 1
 172 -161 175 -162 178 -162 c 1
 186 -148 192 -134 202 -118 c 1
 201 -115 200 -112 198 -109 c 1
186 -160 m 1
 195 -156 204 -146 204 -133 c 0
 204 -132 204 -130 204 -129 c 1
 200 -138 194 -149 186 -160 c 1
EndSplineSet
Validated: 1
EndChar

StartChar: G
Encoding: 71 71 4
Width: 263
VWidth: -2419
Flags: W
HStem: -180 19<169 189.956> -74 19<149.539 196.165> 13 6<160.158 183.111> 33 18<150.097 195.301> 119 6<160.327 183.819> 121 2<150 151> 139 18<150.097 195.301> 225 7<159.784 184.922> 227 2<150 151> 298 18<150.097 195.301> 385 6<154.085 182.95> 386 2<150 151> 400 18<150.097 195.301> 486 7<159.784 184.922> 488 2<150 151> 502 18<150.317 195.301> 588 6<160.327 183.819> 595 18<65.0967 111.366> 681 7<74.7888 100.541> 683 2<62.3457 66> 688 18<150.097 195.301> 774 7<159.784 184.922> 776 2<150 151>
VStem: 40 10<632.312 664.942> 125 10<-138.499 -124.127 -35.4932 -3.91954 70.312 102.942 176.312 208.942 335.312 367.942 437.312 469.942 539.534 570.513 725.312 757.942> 204 16<-152.578 -129 -45.4258 -1.7704 60.3412 104.23 166.341 210.23 325.341 369.421 427.341 471.23 529.341 573.23 715.341 759.23>
LayerCount: 2
Fore
SplineSet
173 400 m 0xf24dc1c0
 144 400 125 425 125 448 c 0
 125 465 133 481 148 490 c 0
 150 491 159 494 151 488 c 0
 150 488 l 0xf24bc1c0
 143 488 135 468 135 453 c 0
 135 431 160 418 175 418 c 0
 190 418 204 430 204 448 c 0
 204 468 192 486 170 486 c 0
 164 486 159 484 156 477 c 1
 148 477 149 479 147 484 c 1
 155 489 165 493 175 493 c 0
 187 493 200 488 209 476 c 0
 217 465 220 455 220 445 c 0
 220 420 198 400 173 400 c 0xf24dc1c0
173 298 m 0
 144 298 125 323 125 346 c 0
 125 363 133 379 148 388 c 0
 150 389 159 392 151 386 c 0
 150 386 l 0xf259c1c0
 143 386 135 366 135 351 c 0
 135 329 160 316 175 316 c 0
 190 316 204 328 204 346 c 0
 204 366 191 385 169 385 c 0
 163 385 159 383 156 376 c 1
 148 376 149 377 147 382 c 1
 155 387 165 391 175 391 c 0xf269c1c0
 187 391 200 386 209 374 c 0
 217 363 220 353 220 343 c 0
 220 318 198 298 173 298 c 0
173 502 m 0
 145 502 125 527 125 549 c 0
 125 565 133 582 148 591 c 0
 150 592 159 596 151 590 c 0
 150 590 l 0
 143 590 135 570 135 555 c 0
 135 533 160 520 175 520 c 0
 190 520 204 532 204 550 c 0
 204 570 192 588 170 588 c 0
 164 588 159 586 156 579 c 1
 148 579 149 580 147 585 c 1
 155 591 166 594 176 594 c 0
 188 594 200 589 209 578 c 0
 217 567 220 557 220 547 c 0
 220 522 198 502 173 502 c 0
173 688 m 0xf249cdc0
 144 688 125 713 125 736 c 0
 125 753 133 769 148 778 c 0
 150 779 159 782 151 776 c 0
 150 776 l 0xf249cbc0
 143 776 135 756 135 741 c 0
 135 719 160 706 175 706 c 0
 190 706 204 718 204 736 c 0
 204 756 192 774 170 774 c 0
 164 774 159 772 156 765 c 1
 148 765 149 767 147 772 c 1
 155 777 165 781 175 781 c 0
 187 781 200 776 209 764 c 0
 217 753 220 743 220 733 c 0
 220 708 198 688 173 688 c 0xf249cdc0
88 595 m 0
 59 595 40 620 40 643 c 0
 40 660 48 676 63 685 c 0
 65 686 74 689 66 683 c 0
 65 683 l 0xf249d1c0
 58 683 50 663 50 648 c 0
 50 626 75 613 90 613 c 0
 106 613 120 625 120 644 c 0
 120 664 107 681 85 681 c 0
 79 681 74 679 71 672 c 1
 63 672 64 674 62 679 c 1
 70 684 81 688 91 688 c 0xf249e1c0
 104 688 116 683 125 671 c 0
 133 661 136 650 136 640 c 0
 136 614 113 595 88 595 c 0
173 139 m 0
 144 139 125 164 125 187 c 0
 125 204 133 220 148 229 c 0
 150 230 159 233 151 227 c 0
 150 227 l 0xf2c9c1c0
 143 227 135 207 135 192 c 0
 135 170 160 157 175 157 c 0
 190 157 204 169 204 187 c 0
 204 207 192 225 170 225 c 0
 164 225 159 223 156 216 c 1
 148 216 149 218 147 223 c 1
 155 228 165 232 175 232 c 0xf349c1c0
 187 232 200 227 209 215 c 0
 217 204 220 194 220 184 c 0
 220 159 198 139 173 139 c 0
173 33 m 0
 144 33 125 58 125 81 c 0
 125 98 133 114 148 123 c 0
 150 124 159 127 151 121 c 0
 150 121 l 0xf649c1c0
 143 121 135 101 135 86 c 0
 135 64 160 51 175 51 c 0
 190 51 204 63 204 81 c 0
 204 101 192 119 170 119 c 0
 164 119 159 117 156 110 c 1
 148 110 149 111 147 116 c 1
 155 122 166 125 176 125 c 0xfa49c1c0
 188 125 200 120 209 109 c 0
 217 98 220 88 220 78 c 0
 220 53 198 33 173 33 c 0
172 -74 m 0
 144 -74 125 -48 125 -26 c 0
 125 -9 133 7 148 16 c 0
 150 17 159 21 151 15 c 0
 150 15 l 0
 143 15 135 -5 135 -20 c 0
 135 -42 160 -55 175 -55 c 0
 190 -55 204 -43 204 -25 c 0
 204 -5 191 13 169 13 c 0
 163 13 159 11 156 4 c 1
 148 4 149 5 147 10 c 1
 155 16 166 19 176 19 c 0
 188 19 200 14 209 3 c 0
 217 -8 220 -18 220 -28 c 0
 220 -54 197 -74 172 -74 c 0
173 -180 m 0
 144 -180 125 -155 125 -132 c 0
 125 -115 133 -99 148 -90 c 0
 150 -89 159 -86 151 -92 c 1
 143 -94 136 -106 136 -118 c 1
 140 -112 141 -110 148 -99 c 0
 148 -98 148 -97 147 -96 c 1
 155 -91 165 -88 175 -88 c 0
 188 -88 200 -92 209 -104 c 0
 217 -115 220 -125 220 -135 c 0
 220 -160 198 -180 173 -180 c 0
170 -93 m 1
 170 -93 159 -95 156 -102 c 0
 155 -102 154 -102 153 -102 c 0
 147 -110 142 -121 136 -130 c 1
 136 -133 138 -139 138 -139 c 1
 147 -128 161 -108 170 -93 c 1
176 -94 m 1
 165 -110 151 -131 142 -144 c 1
 144 -147 147 -150 150 -152 c 1
 161 -134 171 -114 182 -96 c 1
 180 -95 178 -95 176 -94 c 1
188 -99 m 1
 178 -114 166 -137 155 -156 c 1
 157 -157 160 -159 162 -160 c 1
 171 -143 181 -126 194 -104 c 1
 192 -102 190 -100 188 -99 c 1
198 -109 m 1
 190 -123 179 -145 169 -161 c 1
 172 -161 175 -162 178 -162 c 1
 186 -148 192 -134 202 -118 c 1
 201 -115 200 -112 198 -109 c 1
186 -160 m 1
 195 -156 204 -146 204 -133 c 0
 204 -132 204 -130 204 -129 c 1
 200 -138 194 -149 186 -160 c 1
EndSplineSet
Validated: 1
EndChar

StartChar: H
Encoding: 72 72 5
Width: 281
VWidth: -2419
Flags: W
HStem: -180 93<164.376 225.575> -74 19<164.786 213.251> 12 7<178.7 203.893> 33 92<165.099 225.576> 139 93<164.376 225.575> 298 93<164.376 225.575> 400 93<164.376 225.575> 502 92<165.099 225.576> 595 93<79.3772 145.063> 688 93<164.376 225.575> 733 46<58 104>
VStem: 57 96<603.433 677.025> 58 46<733 779> 142 12<-39.9794 -1.92473> 222 15<-44.0693 -2.50695>
LayerCount: 2
Fore
SplineSet
105 595 m 0xff92
 76 595 57 620 57 643 c 0xff92
 57 660 65 676 80 685 c 0
 82 686 91 689 83 683 c 1
 72 682 81 674 79 679 c 1
 87 684 98 688 108 688 c 0
 121 688 133 683 142 671 c 0xff86
 150 661 153 650 153 640 c 0
 153 614 130 595 105 595 c 0xff92
190 688 m 0xff46
 161 688 142 713 142 736 c 0
 142 753 150 769 165 778 c 0
 167 779 176 782 168 776 c 1
 157 775 166 767 164 772 c 1
 172 777 182 781 192 781 c 0xff46
 204 781 217 776 226 764 c 0
 234 753 237 743 237 733 c 0xff26
 237 708 215 688 190 688 c 0xff46
190 502 m 0
 162 502 142 527 142 549 c 0
 142 565 150 582 165 591 c 0
 167 592 176 596 168 590 c 1
 157 589 166 580 164 585 c 1
 172 591 183 594 193 594 c 0
 205 594 217 589 226 578 c 0
 234 567 237 557 237 547 c 0
 237 522 215 502 190 502 c 0
190 400 m 0
 161 400 142 425 142 448 c 0
 142 465 150 481 165 490 c 0
 167 491 176 494 168 488 c 1
 157 487 166 479 164 484 c 1
 172 489 182 493 192 493 c 0
 204 493 217 488 226 476 c 0
 234 465 237 455 237 445 c 0
 237 420 215 400 190 400 c 0
190 298 m 0
 161 298 142 323 142 346 c 0
 142 363 150 379 165 388 c 0
 167 389 176 392 168 386 c 1
 157 385 166 377 164 382 c 1
 172 387 182 391 192 391 c 0
 204 391 217 386 226 374 c 0
 234 363 237 353 237 343 c 0
 237 318 215 298 190 298 c 0
190 139 m 0
 161 139 142 164 142 187 c 0
 142 204 150 220 165 229 c 0
 167 230 176 233 168 227 c 1
 157 226 166 218 164 223 c 1
 172 228 182 232 192 232 c 0
 204 232 217 227 226 215 c 0
 234 204 237 194 237 184 c 0
 237 159 215 139 190 139 c 0
222 -24 m 0
 222 -9 209 12 193 12 c 0
 179 12 173 4 173 4 c 1
 165 4 166 5 164 10 c 1
 172 16 183 19 193 19 c 0
 205 19 217 14 226 3 c 0
 234 -8 237 -18 237 -28 c 0
 237 -54 214 -74 189 -74 c 0
 161 -74 142 -48 142 -26 c 0
 142 -9 150 7 165 16 c 0
 167 17 176 21 168 15 c 0
 167 15 l 0
 160 15 154 -5 154 -21 c 0
 154 -42 171 -55 190 -55 c 0
 208 -55 222 -42 222 -24 c 0
190 33 m 0
 161 33 142 58 142 81 c 0
 142 98 150 114 165 123 c 0
 167 124 176 127 168 121 c 1
 157 120 166 111 164 116 c 1
 172 122 183 125 193 125 c 0
 205 125 217 120 226 109 c 0
 234 98 237 88 237 78 c 0
 237 53 215 33 190 33 c 0
190 -180 m 0
 161 -180 142 -155 142 -132 c 0
 142 -115 150 -99 165 -90 c 0
 167 -89 176 -86 168 -92 c 1
 157 -93 166 -101 164 -96 c 1
 172 -91 182 -87 192 -87 c 0
 204 -87 217 -92 226 -104 c 0
 234 -115 237 -125 237 -135 c 0
 237 -160 215 -180 190 -180 c 0
58 733 m 1xff2a
 58 779 l 1
 104 779 l 1
 104 733 l 1
 58 733 l 1xff2a
EndSplineSet
Validated: 1
EndChar

StartChar: N
Encoding: 78 78 6
Width: 263
VWidth: -2419
Flags: W
HStem: -180 19<169 189.956> -74 19<149.539 196.165> 13 6<160.158 183.111> 33 18<150.097 195.301> 119 6<160.327 183.819> 121 2<150 151> 139 18<150.097 195.301> 225 7<159.784 184.922> 227 2<150 151> 298 18<150.097 195.301> 385 6<154.085 182.95> 386 2<150 151> 400 18<150.097 195.301> 486 7<159.784 184.922> 488 2<150 151> 502 92<148.099 208.576> 595 93<62.3772 128.063> 688 93<147.376 208.575>
VStem: 40 96<603.433 677.025> 125 10<-138.499 -124.127 -35.4932 -3.91954 70.312 102.942 176.312 208.942 335.312 367.942 437.312 469.942> 204 16<-152.578 -129 -45.4258 -1.7704 60.3412 104.23 166.341 210.23 325.341 369.421 427.341 471.23>
LayerCount: 2
Fore
SplineSet
88 595 m 0xf249a8
 59 595 40 620 40 643 c 0xf249a8
 40 660 48 676 63 685 c 0
 65 686 74 689 66 683 c 1
 55 682 64 674 62 679 c 1
 70 684 81 688 91 688 c 0
 104 688 116 683 125 671 c 0xf24998
 133 661 136 650 136 640 c 0
 136 614 113 595 88 595 c 0xf249a8
173 400 m 0
 144 400 125 425 125 448 c 0
 125 465 133 481 148 490 c 0
 150 491 159 494 151 488 c 0
 150 488 l 0xf24b18
 143 488 135 468 135 453 c 0
 135 431 160 418 175 418 c 0
 190 418 204 430 204 448 c 0
 204 468 192 486 170 486 c 0
 164 486 159 484 156 477 c 1
 148 477 149 479 147 484 c 1
 155 489 165 493 175 493 c 0xf24d18
 187 493 200 488 209 476 c 0
 217 465 220 455 220 445 c 0
 220 420 198 400 173 400 c 0
173 298 m 0
 144 298 125 323 125 346 c 0
 125 363 133 379 148 388 c 0
 150 389 159 392 151 386 c 0
 150 386 l 0xf25918
 143 386 135 366 135 351 c 0
 135 329 160 316 175 316 c 0
 190 316 204 328 204 346 c 0
 204 366 191 385 169 385 c 0
 163 385 159 383 156 376 c 1
 148 376 149 377 147 382 c 1
 155 387 165 391 175 391 c 0xf26918
 187 391 200 386 209 374 c 0
 217 363 220 353 220 343 c 0
 220 318 198 298 173 298 c 0
173 688 m 0xf24958
 144 688 125 713 125 736 c 0
 125 753 133 769 148 778 c 0
 150 779 159 782 151 776 c 1
 140 775 149 767 147 772 c 1
 155 777 165 781 175 781 c 0
 187 781 200 776 209 764 c 0
 217 753 220 743 220 733 c 0
 220 708 198 688 173 688 c 0xf24958
173 139 m 0
 144 139 125 164 125 187 c 0
 125 204 133 220 148 229 c 0
 150 230 159 233 151 227 c 0
 150 227 l 0xf2c918
 143 227 135 207 135 192 c 0
 135 170 160 157 175 157 c 0
 190 157 204 169 204 187 c 0
 204 207 192 225 170 225 c 0
 164 225 159 223 156 216 c 1
 148 216 149 218 147 223 c 1
 155 228 165 232 175 232 c 0xf34918
 187 232 200 227 209 215 c 0
 217 204 220 194 220 184 c 0
 220 159 198 139 173 139 c 0
173 33 m 0
 144 33 125 58 125 81 c 0
 125 98 133 114 148 123 c 0
 150 124 159 127 151 121 c 0
 150 121 l 0xf64918
 143 121 135 101 135 86 c 0
 135 64 160 51 175 51 c 0
 190 51 204 63 204 81 c 0
 204 101 192 119 170 119 c 0
 164 119 159 117 156 110 c 1
 148 110 149 111 147 116 c 1
 155 122 166 125 176 125 c 0xfa4918
 188 125 200 120 209 109 c 0
 217 98 220 88 220 78 c 0
 220 53 198 33 173 33 c 0
172 -74 m 0
 144 -74 125 -48 125 -26 c 0
 125 -9 133 7 148 16 c 0
 150 17 159 21 151 15 c 0
 150 15 l 0
 143 15 135 -5 135 -20 c 0
 135 -42 160 -55 175 -55 c 0
 190 -55 204 -43 204 -25 c 0
 204 -5 191 13 169 13 c 0
 163 13 159 11 156 4 c 1
 148 4 149 5 147 10 c 1
 155 16 166 19 176 19 c 0
 188 19 200 14 209 3 c 0
 217 -8 220 -18 220 -28 c 0
 220 -54 197 -74 172 -74 c 0
173 502 m 0
 145 502 125 527 125 549 c 0
 125 565 133 582 148 591 c 0
 150 592 159 596 151 590 c 1
 140 589 149 580 147 585 c 1
 155 591 166 594 176 594 c 0
 188 594 200 589 209 578 c 0
 217 567 220 557 220 547 c 0
 220 522 198 502 173 502 c 0
173 -180 m 0
 144 -180 125 -155 125 -132 c 0xf24918
 125 -115 133 -99 148 -90 c 0
 150 -89 159 -86 151 -92 c 1
 143 -94 136 -106 136 -118 c 1xf24928
 140 -112 141 -110 148 -99 c 0
 148 -98 148 -97 147 -96 c 1
 155 -91 165 -88 175 -88 c 0
 188 -88 200 -92 209 -104 c 0
 217 -115 220 -125 220 -135 c 0
 220 -160 198 -180 173 -180 c 0
170 -93 m 1
 170 -93 159 -95 156 -102 c 0
 155 -102 154 -102 153 -102 c 0
 147 -110 142 -121 136 -130 c 1xf24928
 136 -133 138 -139 138 -139 c 1
 147 -128 161 -108 170 -93 c 1
176 -94 m 1
 165 -110 151 -131 142 -144 c 1
 144 -147 147 -150 150 -152 c 1
 161 -134 171 -114 182 -96 c 1
 180 -95 178 -95 176 -94 c 1
188 -99 m 1
 178 -114 166 -137 155 -156 c 1
 157 -157 160 -159 162 -160 c 1
 171 -143 181 -126 194 -104 c 1
 192 -102 190 -100 188 -99 c 1
198 -109 m 1
 190 -123 179 -145 169 -161 c 1
 172 -161 175 -162 178 -162 c 1
 186 -148 192 -134 202 -118 c 1
 201 -115 200 -112 198 -109 c 1
186 -160 m 1
 195 -156 204 -146 204 -133 c 0
 204 -132 204 -130 204 -129 c 1
 200 -138 194 -149 186 -160 c 1
EndSplineSet
Validated: 1
EndChar

StartChar: S
Encoding: 83 83 7
Width: 263
VWidth: -2419
Flags: W
HStem: -180 19<169 189.956> -74 19<149.539 196.165> 13 6<160.158 183.111> 33 18<150.097 195.301> 119 6<160.327 183.819> 121 2<150 151> 139 18<150.097 195.301> 225 7<159.784 184.922> 227 2<150 151> 298 93<147.376 208.575> 400 93<147.376 208.575> 502 92<148.099 208.576> 595 93<62.3772 128.063> 688 18<150.097 195.301> 774 7<159.784 184.922> 776 2<150 151>
VStem: 40 96<603.433 677.025> 125 10<-138.499 -124.127 -35.4932 -3.91954 70.312 102.942 176.312 208.942 725.312 757.942> 204 16<-152.578 -129 -45.4258 -1.7704 60.3412 104.23 166.341 210.23 715.341 759.23>
LayerCount: 2
Fore
SplineSet
88 595 m 0xf278a0
 59 595 40 620 40 643 c 0xf278a0
 40 660 48 676 63 685 c 0
 65 686 74 689 66 683 c 1
 55 682 64 674 62 679 c 1
 70 684 81 688 91 688 c 0
 104 688 116 683 125 671 c 0xf27860
 133 661 136 650 136 640 c 0
 136 614 113 595 88 595 c 0xf278a0
173 139 m 0
 144 139 125 164 125 187 c 0
 125 204 133 220 148 229 c 0
 150 230 159 233 151 227 c 0
 150 227 l 0xf2f060
 143 227 135 207 135 192 c 0
 135 170 160 157 175 157 c 0
 190 157 204 169 204 187 c 0
 204 207 192 225 170 225 c 0
 164 225 159 223 156 216 c 1
 148 216 149 218 147 223 c 1
 155 228 165 232 175 232 c 0xf37060
 187 232 200 227 209 215 c 0
 217 204 220 194 220 184 c 0
 220 159 198 139 173 139 c 0
173 33 m 0
 144 33 125 58 125 81 c 0
 125 98 133 114 148 123 c 0
 150 124 159 127 151 121 c 0
 150 121 l 0xf67060
 143 121 135 101 135 86 c 0
 135 64 160 51 175 51 c 0
 190 51 204 63 204 81 c 0
 204 101 192 119 170 119 c 0
 164 119 159 117 156 110 c 1
 148 110 149 111 147 116 c 1
 155 122 166 125 176 125 c 0xfa7060
 188 125 200 120 209 109 c 0
 217 98 220 88 220 78 c 0
 220 53 198 33 173 33 c 0
172 -74 m 0
 144 -74 125 -48 125 -26 c 0
 125 -9 133 7 148 16 c 0
 150 17 159 21 151 15 c 0
 150 15 l 0
 143 15 135 -5 135 -20 c 0
 135 -42 160 -55 175 -55 c 0
 190 -55 204 -43 204 -25 c 0
 204 -5 191 13 169 13 c 0
 163 13 159 11 156 4 c 1
 148 4 149 5 147 10 c 1
 155 16 166 19 176 19 c 0
 188 19 200 14 209 3 c 0
 217 -8 220 -18 220 -28 c 0
 220 -54 197 -74 172 -74 c 0
173 502 m 0
 145 502 125 527 125 549 c 0
 125 565 133 582 148 591 c 0
 150 592 159 596 151 590 c 1
 140 589 149 580 147 585 c 1
 155 591 166 594 176 594 c 0
 188 594 200 589 209 578 c 0
 217 567 220 557 220 547 c 0
 220 522 198 502 173 502 c 0
173 400 m 0
 144 400 125 425 125 448 c 0
 125 465 133 481 148 490 c 0
 150 491 159 494 151 488 c 1
 140 487 149 479 147 484 c 1
 155 489 165 493 175 493 c 0
 187 493 200 488 209 476 c 0
 217 465 220 455 220 445 c 0
 220 420 198 400 173 400 c 0
173 298 m 0
 144 298 125 323 125 346 c 0
 125 363 133 379 148 388 c 0
 150 389 159 392 151 386 c 1
 140 385 149 377 147 382 c 1
 155 387 165 391 175 391 c 0
 187 391 200 386 209 374 c 0
 217 363 220 353 220 343 c 0
 220 318 198 298 173 298 c 0
173 -180 m 0
 144 -180 125 -155 125 -132 c 0xf27060
 125 -115 133 -99 148 -90 c 0
 150 -89 159 -86 151 -92 c 1
 143 -94 136 -106 136 -118 c 1xf270a0
 140 -112 141 -110 148 -99 c 0
 148 -98 148 -97 147 -96 c 1
 155 -91 165 -88 175 -88 c 0
 188 -88 200 -92 209 -104 c 0
 217 -115 220 -125 220 -135 c 0
 220 -160 198 -180 173 -180 c 0
170 -93 m 1
 170 -93 159 -95 156 -102 c 0
 155 -102 154 -102 153 -102 c 0
 147 -110 142 -121 136 -130 c 1xf270a0
 136 -133 138 -139 138 -139 c 1
 147 -128 161 -108 170 -93 c 1
176 -94 m 1
 165 -110 151 -131 142 -144 c 1
 144 -147 147 -150 150 -152 c 1
 161 -134 171 -114 182 -96 c 1
 180 -95 178 -95 176 -94 c 1
188 -99 m 1
 178 -114 166 -137 155 -156 c 1
 157 -157 160 -159 162 -160 c 1
 171 -143 181 -126 194 -104 c 1
 192 -102 190 -100 188 -99 c 1
198 -109 m 1
 190 -123 179 -145 169 -161 c 1
 172 -161 175 -162 178 -162 c 1
 186 -148 192 -134 202 -118 c 1
 201 -115 200 -112 198 -109 c 1
186 -160 m 1
 195 -156 204 -146 204 -133 c 0
 204 -132 204 -130 204 -129 c 1
 200 -138 194 -149 186 -160 c 1
173 688 m 0xf27660
 144 688 125 713 125 736 c 0
 125 753 133 769 148 778 c 0
 150 779 159 782 151 776 c 0
 150 776 l 0xf27560
 143 776 135 756 135 741 c 0
 135 719 160 706 175 706 c 0
 190 706 204 718 204 736 c 0
 204 756 192 774 170 774 c 0
 164 774 159 772 156 765 c 1
 148 765 149 767 147 772 c 1
 155 777 165 781 175 781 c 0
 187 781 200 776 209 764 c 0
 217 753 220 743 220 733 c 0
 220 708 198 688 173 688 c 0xf27660
EndSplineSet
Validated: 1
EndChar

StartChar: b
Encoding: 98 98 8
Width: 263
VWidth: -2419
Flags: W
HStem: -180 19<169 189.956> -74 19<149.539 196.165> 13 6<160.158 183.111> 33 18<150.097 195.301> 119 6<160.327 183.819> 121 2<150 151> 139 18<150.097 195.301> 225 7<159.784 184.922> 227 2<150 151> 298 93<147.376 208.575> 400 93<147.376 208.575> 502 92<148.099 208.576> 595 93<62.3772 128.063> 688 93<147.376 208.575>
VStem: 40 96<603.433 677.025> 125 10<-138.499 -124.127 -35.4932 -3.91954 70.312 102.942 176.312 208.942> 204 16<-152.578 -129 -45.4258 -1.7704 60.3412 104.23 166.341 210.23>
LayerCount: 2
Fore
SplineSet
88 595 m 0xf27a80
 59 595 40 620 40 643 c 0xf27a80
 40 660 48 676 63 685 c 0
 65 686 74 689 66 683 c 1
 55 682 64 674 62 679 c 1
 70 684 81 688 91 688 c 0
 104 688 116 683 125 671 c 0xf27980
 133 661 136 650 136 640 c 0
 136 614 113 595 88 595 c 0xf27a80
173 688 m 0xf27580
 144 688 125 713 125 736 c 0
 125 753 133 769 148 778 c 0
 150 779 159 782 151 776 c 1
 140 775 149 767 147 772 c 1
 155 777 165 781 175 781 c 0
 187 781 200 776 209 764 c 0
 217 753 220 743 220 733 c 0
 220 708 198 688 173 688 c 0xf27580
173 139 m 0
 144 139 125 164 125 187 c 0
 125 204 133 220 148 229 c 0
 150 230 159 233 151 227 c 0
 150 227 l 0xf2f180
 143 227 135 207 135 192 c 0
 135 170 160 157 175 157 c 0
 190 157 204 169 204 187 c 0
 204 207 192 225 170 225 c 0
 164 225 159 223 156 216 c 1
 148 216 149 218 147 223 c 1
 155 228 165 232 175 232 c 0xf37180
 187 232 200 227 209 215 c 0
 217 204 220 194 220 184 c 0
 220 159 198 139 173 139 c 0
173 33 m 0
 144 33 125 58 125 81 c 0
 125 98 133 114 148 123 c 0
 150 124 159 127 151 121 c 0
 150 121 l 0xf67180
 143 121 135 101 135 86 c 0
 135 64 160 51 175 51 c 0
 190 51 204 63 204 81 c 0
 204 101 192 119 170 119 c 0
 164 119 159 117 156 110 c 1
 148 110 149 111 147 116 c 1
 155 122 166 125 176 125 c 0xfa7180
 188 125 200 120 209 109 c 0
 217 98 220 88 220 78 c 0
 220 53 198 33 173 33 c 0
172 -74 m 0
 144 -74 125 -48 125 -26 c 0
 125 -9 133 7 148 16 c 0
 150 17 159 21 151 15 c 0
 150 15 l 0
 143 15 135 -5 135 -20 c 0
 135 -42 160 -55 175 -55 c 0
 190 -55 204 -43 204 -25 c 0
 204 -5 191 13 169 13 c 0
 163 13 159 11 156 4 c 1
 148 4 149 5 147 10 c 1
 155 16 166 19 176 19 c 0
 188 19 200 14 209 3 c 0
 217 -8 220 -18 220 -28 c 0
 220 -54 197 -74 172 -74 c 0
173 502 m 0
 145 502 125 527 125 549 c 0
 125 565 133 582 148 591 c 0
 150 592 159 596 151 590 c 1
 140 589 149 580 147 585 c 1
 155 591 166 594 176 594 c 0
 188 594 200 589 209 578 c 0
 217 567 220 557 220 547 c 0
 220 522 198 502 173 502 c 0
173 400 m 0
 144 400 125 425 125 448 c 0
 125 465 133 481 148 490 c 0
 150 491 159 494 151 488 c 1
 140 487 149 479 147 484 c 1
 155 489 165 493 175 493 c 0
 187 493 200 488 209 476 c 0
 217 465 220 455 220 445 c 0
 220 420 198 400 173 400 c 0
173 298 m 0
 144 298 125 323 125 346 c 0
 125 363 133 379 148 388 c 0
 150 389 159 392 151 386 c 1
 140 385 149 377 147 382 c 1
 155 387 165 391 175 391 c 0
 187 391 200 386 209 374 c 0
 217 363 220 353 220 343 c 0
 220 318 198 298 173 298 c 0
173 -180 m 0
 144 -180 125 -155 125 -132 c 0xf27180
 125 -115 133 -99 148 -90 c 0
 150 -89 159 -86 151 -92 c 1
 143 -94 136 -106 136 -118 c 1xf27280
 140 -112 141 -110 148 -99 c 0
 148 -98 148 -97 147 -96 c 1
 155 -91 165 -88 175 -88 c 0
 188 -88 200 -92 209 -104 c 0
 217 -115 220 -125 220 -135 c 0
 220 -160 198 -180 173 -180 c 0
170 -93 m 1
 170 -93 159 -95 156 -102 c 0
 155 -102 154 -102 153 -102 c 0
 147 -110 142 -121 136 -130 c 1xf27280
 136 -133 138 -139 138 -139 c 1
 147 -128 161 -108 170 -93 c 1
176 -94 m 1
 165 -110 151 -131 142 -144 c 1
 144 -147 147 -150 150 -152 c 1
 161 -134 171 -114 182 -96 c 1
 180 -95 178 -95 176 -94 c 1
188 -99 m 1
 178 -114 166 -137 155 -156 c 1
 157 -157 160 -159 162 -160 c 1
 171 -143 181 -126 194 -104 c 1
 192 -102 190 -100 188 -99 c 1
198 -109 m 1
 190 -123 179 -145 169 -161 c 1
 172 -161 175 -162 178 -162 c 1
 186 -148 192 -134 202 -118 c 1
 201 -115 200 -112 198 -109 c 1
186 -160 m 1
 195 -156 204 -146 204 -133 c 0
 204 -132 204 -130 204 -129 c 1
 200 -138 194 -149 186 -160 c 1
EndSplineSet
Validated: 1
EndChar

StartChar: c
Encoding: 99 99 9
Width: 264
VWidth: -2419
Flags: W
HStem: -180 18<150.097 195.301> -93 6<154.085 182.95> -92 2<150 151> -74 19<149.539 196.165> 13 6<160.158 183.111> 33 92<148.099 208.576> 139 93<147.376 208.575> 298 93<147.376 208.575> 400 93<147.376 208.575> 502 92<148.099 208.576> 595 93<62.3772 128.063> 688 93<147.376 208.575>
VStem: 40 96<603.433 677.025> 125 10<-142.688 -110.058 -35.4932 -3.91954> 204 16<-152.659 -108.579 -45.4258 -1.7704>
LayerCount: 2
Fore
SplineSet
88 595 m 0x9fea
 59 595 40 620 40 643 c 0x9fea
 40 660 48 676 63 685 c 0
 65 686 74 689 66 683 c 1
 55 682 64 674 62 679 c 1
 70 684 81 688 91 688 c 0
 104 688 116 683 125 671 c 0x9fe6
 133 661 136 650 136 640 c 0
 136 614 113 595 88 595 c 0x9fea
173 688 m 0x9fd6
 144 688 125 713 125 736 c 0
 125 753 133 769 148 778 c 0
 150 779 159 782 151 776 c 1
 140 775 149 767 147 772 c 1
 155 777 165 781 175 781 c 0
 187 781 200 776 209 764 c 0
 217 753 220 743 220 733 c 0
 220 708 198 688 173 688 c 0x9fd6
172 -74 m 0
 144 -74 125 -48 125 -26 c 0
 125 -9 133 7 148 16 c 0
 150 17 159 21 151 15 c 0
 150 15 l 0
 143 15 135 -5 135 -20 c 0
 135 -42 160 -55 175 -55 c 0
 190 -55 204 -43 204 -25 c 0
 204 -5 191 13 169 13 c 0
 163 13 159 11 156 4 c 1
 148 4 149 5 147 10 c 1
 155 16 166 19 176 19 c 0
 188 19 200 14 209 3 c 0
 217 -8 220 -18 220 -28 c 0
 220 -54 197 -74 172 -74 c 0
173 502 m 0
 145 502 125 527 125 549 c 0
 125 565 133 582 148 591 c 0
 150 592 159 596 151 590 c 1
 140 589 149 580 147 585 c 1
 155 591 166 594 176 594 c 0
 188 594 200 589 209 578 c 0
 217 567 220 557 220 547 c 0
 220 522 198 502 173 502 c 0
173 400 m 0
 144 400 125 425 125 448 c 0
 125 465 133 481 148 490 c 0
 150 491 159 494 151 488 c 1
 140 487 149 479 147 484 c 1
 155 489 165 493 175 493 c 0
 187 493 200 488 209 476 c 0
 217 465 220 455 220 445 c 0
 220 420 198 400 173 400 c 0
173 298 m 0
 144 298 125 323 125 346 c 0
 125 363 133 379 148 388 c 0
 150 389 159 392 151 386 c 1
 140 385 149 377 147 382 c 1
 155 387 165 391 175 391 c 0
 187 391 200 386 209 374 c 0
 217 363 220 353 220 343 c 0
 220 318 198 298 173 298 c 0
173 139 m 0
 144 139 125 164 125 187 c 0
 125 204 133 220 148 229 c 0
 150 230 159 233 151 227 c 1
 140 226 149 218 147 223 c 1
 155 228 165 232 175 232 c 0
 187 232 200 227 209 215 c 0
 217 204 220 194 220 184 c 0
 220 159 198 139 173 139 c 0
173 -180 m 0
 144 -180 125 -155 125 -132 c 0
 125 -115 133 -99 148 -90 c 0
 150 -89 159 -86 151 -92 c 0
 150 -92 l 0xbfc6
 143 -92 135 -112 135 -127 c 0
 135 -149 160 -162 175 -162 c 0
 190 -162 204 -150 204 -132 c 0
 204 -112 191 -93 169 -93 c 0
 163 -93 159 -95 156 -102 c 1
 148 -102 149 -101 147 -96 c 1
 155 -91 165 -87 175 -87 c 0xdfc6
 187 -87 200 -92 209 -104 c 0
 217 -115 220 -125 220 -135 c 0
 220 -160 198 -180 173 -180 c 0
173 33 m 0
 144 33 125 58 125 81 c 0
 125 98 133 114 148 123 c 0
 150 124 159 127 151 121 c 1
 140 120 149 111 147 116 c 1
 155 122 166 125 176 125 c 0
 188 125 200 120 209 109 c 0
 217 98 220 88 220 78 c 0
 220 53 198 33 173 33 c 0
EndSplineSet
Validated: 1
EndChar

StartChar: d
Encoding: 100 100 10
Width: 263
VWidth: -2419
Flags: W
HStem: -180 19<169 189.956> -74 19<149.539 196.165> 13 6<160.158 183.111> 33 18<150.097 195.301> 119 6<160.327 183.819> 121 2<150 151> 139 18<150.097 195.301> 225 7<159.784 184.922> 227 2<150 151> 298 18<150.097 195.301> 385 6<154.085 182.95> 386 2<150 151> 400 18<150.097 195.301> 486 7<159.784 184.922> 488 2<150 151> 502 18<150.317 195.301> 588 6<160.327 183.819> 595 93<62.3772 128.063> 688 18<150.097 195.301> 774 7<159.784 184.922> 776 2<150 151>
VStem: 40 96<603.433 677.025> 125 10<-138.499 -124.127 -35.4932 -3.91954 70.312 102.942 176.312 208.942 335.312 367.942 437.312 469.942 539.534 570.513 725.312 757.942> 204 16<-152.578 -129 -45.4258 -1.7704 60.3412 104.23 166.341 210.23 325.341 369.421 427.341 471.23 529.341 573.23 715.341 759.23>
LayerCount: 2
Fore
SplineSet
88 595 m 0xf249c5
 59 595 40 620 40 643 c 0xf249c5
 40 660 48 676 63 685 c 0
 65 686 74 689 66 683 c 1
 55 682 64 674 62 679 c 1
 70 684 81 688 91 688 c 0
 104 688 116 683 125 671 c 0xf249c3
 133 661 136 650 136 640 c 0
 136 614 113 595 88 595 c 0xf249c5
173 400 m 0
 144 400 125 425 125 448 c 0
 125 465 133 481 148 490 c 0
 150 491 159 494 151 488 c 0
 150 488 l 0xf24b83
 143 488 135 468 135 453 c 0
 135 431 160 418 175 418 c 0
 190 418 204 430 204 448 c 0
 204 468 192 486 170 486 c 0
 164 486 159 484 156 477 c 1
 148 477 149 479 147 484 c 1
 155 489 165 493 175 493 c 0xf24d83
 187 493 200 488 209 476 c 0
 217 465 220 455 220 445 c 0
 220 420 198 400 173 400 c 0
173 298 m 0
 144 298 125 323 125 346 c 0
 125 363 133 379 148 388 c 0
 150 389 159 392 151 386 c 0
 150 386 l 0xf25983
 143 386 135 366 135 351 c 0
 135 329 160 316 175 316 c 0
 190 316 204 328 204 346 c 0
 204 366 191 385 169 385 c 0
 163 385 159 383 156 376 c 1
 148 376 149 377 147 382 c 1
 155 387 165 391 175 391 c 0xf26983
 187 391 200 386 209 374 c 0
 217 363 220 353 220 343 c 0
 220 318 198 298 173 298 c 0
173 502 m 0
 145 502 125 527 125 549 c 0
 125 565 133 582 148 591 c 0
 150 592 159 596 151 590 c 0
 150 590 l 0
 143 590 135 570 135 555 c 0
 135 533 160 520 175 520 c 0
 190 520 204 532 204 550 c 0
 204 570 192 588 170 588 c 0
 164 588 159 586 156 579 c 1
 148 579 149 580 147 585 c 1
 155 591 166 594 176 594 c 0
 188 594 200 589 209 578 c 0
 217 567 220 557 220 547 c 0
 220 522 198 502 173 502 c 0
173 139 m 0
 144 139 125 164 125 187 c 0
 125 204 133 220 148 229 c 0
 150 230 159 233 151 227 c 0
 150 227 l 0xf2c983
 143 227 135 207 135 192 c 0
 135 170 160 157 175 157 c 0
 190 157 204 169 204 187 c 0
 204 207 192 225 170 225 c 0
 164 225 159 223 156 216 c 1
 148 216 149 218 147 223 c 1
 155 228 165 232 175 232 c 0xf34983
 187 232 200 227 209 215 c 0
 217 204 220 194 220 184 c 0
 220 159 198 139 173 139 c 0
173 33 m 0
 144 33 125 58 125 81 c 0
 125 98 133 114 148 123 c 0
 150 124 159 127 151 121 c 0
 150 121 l 0xf64983
 143 121 135 101 135 86 c 0
 135 64 160 51 175 51 c 0
 190 51 204 63 204 81 c 0
 204 101 192 119 170 119 c 0
 164 119 159 117 156 110 c 1
 148 110 149 111 147 116 c 1
 155 122 166 125 176 125 c 0xfa4983
 188 125 200 120 209 109 c 0
 217 98 220 88 220 78 c 0
 220 53 198 33 173 33 c 0
172 -74 m 0
 144 -74 125 -48 125 -26 c 0
 125 -9 133 7 148 16 c 0
 150 17 159 21 151 15 c 0
 150 15 l 0
 143 15 135 -5 135 -20 c 0
 135 -42 160 -55 175 -55 c 0
 190 -55 204 -43 204 -25 c 0
 204 -5 191 13 169 13 c 0
 163 13 159 11 156 4 c 1
 148 4 149 5 147 10 c 1
 155 16 166 19 176 19 c 0
 188 19 200 14 209 3 c 0
 217 -8 220 -18 220 -28 c 0
 220 -54 197 -74 172 -74 c 0
173 688 m 0xf249b3
 144 688 125 713 125 736 c 0
 125 753 133 769 148 778 c 0
 150 779 159 782 151 776 c 0
 150 776 l 0xf249ab
 143 776 135 756 135 741 c 0
 135 719 160 706 175 706 c 0
 190 706 204 718 204 736 c 0
 204 756 192 774 170 774 c 0
 164 774 159 772 156 765 c 1
 148 765 149 767 147 772 c 1
 155 777 165 781 175 781 c 0
 187 781 200 776 209 764 c 0
 217 753 220 743 220 733 c 0
 220 708 198 688 173 688 c 0xf249b3
173 -180 m 0
 144 -180 125 -155 125 -132 c 0xf24983
 125 -115 133 -99 148 -90 c 0
 150 -89 159 -86 151 -92 c 1
 143 -94 136 -106 136 -118 c 1xf24985
 140 -112 141 -110 148 -99 c 0
 148 -98 148 -97 147 -96 c 1
 155 -91 165 -88 175 -88 c 0
 188 -88 200 -92 209 -104 c 0
 217 -115 220 -125 220 -135 c 0
 220 -160 198 -180 173 -180 c 0
170 -93 m 1
 170 -93 159 -95 156 -102 c 0
 155 -102 154 -102 153 -102 c 0
 147 -110 142 -121 136 -130 c 1xf24985
 136 -133 138 -139 138 -139 c 1
 147 -128 161 -108 170 -93 c 1
176 -94 m 1
 165 -110 151 -131 142 -144 c 1
 144 -147 147 -150 150 -152 c 1
 161 -134 171 -114 182 -96 c 1
 180 -95 178 -95 176 -94 c 1
188 -99 m 1
 178 -114 166 -137 155 -156 c 1
 157 -157 160 -159 162 -160 c 1
 171 -143 181 -126 194 -104 c 1
 192 -102 190 -100 188 -99 c 1
198 -109 m 1
 190 -123 179 -145 169 -161 c 1
 172 -161 175 -162 178 -162 c 1
 186 -148 192 -134 202 -118 c 1
 201 -115 200 -112 198 -109 c 1
186 -160 m 1
 195 -156 204 -146 204 -133 c 0
 204 -132 204 -130 204 -129 c 1
 200 -138 194 -149 186 -160 c 1
EndSplineSet
Validated: 1
EndChar

StartChar: f
Encoding: 102 102 11
Width: 263
VWidth: -2419
Flags: W
HStem: -180 19<169 189.956> -74 19<149.539 196.165> 13 6<160.158 183.111> 33 18<150.097 195.301> 119 6<160.327 183.819> 121 2<150 151> 139 18<150.097 195.301> 225 7<159.784 184.922> 227 2<150 151> 298 18<150.097 195.301> 385 6<154.085 182.95> 386 2<150 151> 400 18<150.097 195.301> 486 7<159.784 184.922> 488 2<150 151> 502 18<150.317 195.301> 588 6<160.327 183.819> 595 18<65.0967 111.366> 681 7<74.7888 100.541> 683 2<62.3457 66> 688 18<150.097 195.301> 774 7<159.784 184.922> 776 2<150 151>
VStem: 40 10<632.312 664.942> 125 10<-138.499 -124.127 -35.4932 -3.91954 70.312 102.942 176.312 208.942 335.312 367.942 437.312 469.942 539.534 570.513 725.312 757.942> 204 16<-152.578 -129 -45.4258 -1.7704 60.3412 104.23 166.341 210.23 325.341 369.421 427.341 471.23 529.341 573.23 715.341 759.23>
LayerCount: 2
Fore
SplineSet
173 400 m 0xf24dc1c0
 144 400 125 425 125 448 c 0
 125 465 133 481 148 490 c 0
 150 491 159 494 151 488 c 0
 150 488 l 0xf24bc1c0
 143 488 135 468 135 453 c 0
 135 431 160 418 175 418 c 0
 190 418 204 430 204 448 c 0
 204 468 192 486 170 486 c 0
 164 486 159 484 156 477 c 1
 148 477 149 479 147 484 c 1
 155 489 165 493 175 493 c 0
 187 493 200 488 209 476 c 0
 217 465 220 455 220 445 c 0
 220 420 198 400 173 400 c 0xf24dc1c0
173 298 m 0
 144 298 125 323 125 346 c 0
 125 363 133 379 148 388 c 0
 150 389 159 392 151 386 c 0
 150 386 l 0xf259c1c0
 143 386 135 366 135 351 c 0
 135 329 160 316 175 316 c 0
 190 316 204 328 204 346 c 0
 204 366 191 385 169 385 c 0
 163 385 159 383 156 376 c 1
 148 376 149 377 147 382 c 1
 155 387 165 391 175 391 c 0xf269c1c0
 187 391 200 386 209 374 c 0
 217 363 220 353 220 343 c 0
 220 318 198 298 173 298 c 0
173 502 m 0
 145 502 125 527 125 549 c 0
 125 565 133 582 148 591 c 0
 150 592 159 596 151 590 c 0
 150 590 l 0
 143 590 135 570 135 555 c 0
 135 533 160 520 175 520 c 0
 190 520 204 532 204 550 c 0
 204 570 192 588 170 588 c 0
 164 588 159 586 156 579 c 1
 148 579 149 580 147 585 c 1
 155 591 166 594 176 594 c 0
 188 594 200 589 209 578 c 0
 217 567 220 557 220 547 c 0
 220 522 198 502 173 502 c 0
173 688 m 0xf249cdc0
 144 688 125 713 125 736 c 0
 125 753 133 769 148 778 c 0
 150 779 159 782 151 776 c 0
 150 776 l 0xf249cbc0
 143 776 135 756 135 741 c 0
 135 719 160 706 175 706 c 0
 190 706 204 718 204 736 c 0
 204 756 192 774 170 774 c 0
 164 774 159 772 156 765 c 1
 148 765 149 767 147 772 c 1
 155 777 165 781 175 781 c 0
 187 781 200 776 209 764 c 0
 217 753 220 743 220 733 c 0
 220 708 198 688 173 688 c 0xf249cdc0
88 595 m 0
 59 595 40 620 40 643 c 0
 40 660 48 676 63 685 c 0
 65 686 74 689 66 683 c 0
 65 683 l 0xf249d1c0
 58 683 50 663 50 648 c 0
 50 626 75 613 90 613 c 0
 106 613 120 625 120 644 c 0
 120 664 107 681 85 681 c 0
 79 681 74 679 71 672 c 1
 63 672 64 674 62 679 c 1
 70 684 81 688 91 688 c 0xf249e1c0
 104 688 116 683 125 671 c 0
 133 661 136 650 136 640 c 0
 136 614 113 595 88 595 c 0
173 139 m 0
 144 139 125 164 125 187 c 0
 125 204 133 220 148 229 c 0
 150 230 159 233 151 227 c 0
 150 227 l 0xf2c9c1c0
 143 227 135 207 135 192 c 0
 135 170 160 157 175 157 c 0
 190 157 204 169 204 187 c 0
 204 207 192 225 170 225 c 0
 164 225 159 223 156 216 c 1
 148 216 149 218 147 223 c 1
 155 228 165 232 175 232 c 0xf349c1c0
 187 232 200 227 209 215 c 0
 217 204 220 194 220 184 c 0
 220 159 198 139 173 139 c 0
173 33 m 0
 144 33 125 58 125 81 c 0
 125 98 133 114 148 123 c 0
 150 124 159 127 151 121 c 0
 150 121 l 0xf649c1c0
 143 121 135 101 135 86 c 0
 135 64 160 51 175 51 c 0
 190 51 204 63 204 81 c 0
 204 101 192 119 170 119 c 0
 164 119 159 117 156 110 c 1
 148 110 149 111 147 116 c 1
 155 122 166 125 176 125 c 0xfa49c1c0
 188 125 200 120 209 109 c 0
 217 98 220 88 220 78 c 0
 220 53 198 33 173 33 c 0
172 -74 m 0
 144 -74 125 -48 125 -26 c 0
 125 -9 133 7 148 16 c 0
 150 17 159 21 151 15 c 0
 150 15 l 0
 143 15 135 -5 135 -20 c 0
 135 -42 160 -55 175 -55 c 0
 190 -55 204 -43 204 -25 c 0
 204 -5 191 13 169 13 c 0
 163 13 159 11 156 4 c 1
 148 4 149 5 147 10 c 1
 155 16 166 19 176 19 c 0
 188 19 200 14 209 3 c 0
 217 -8 220 -18 220 -28 c 0
 220 -54 197 -74 172 -74 c 0
173 -180 m 0
 144 -180 125 -155 125 -132 c 0
 125 -115 133 -99 148 -90 c 0
 150 -89 159 -86 151 -92 c 1
 143 -94 136 -106 136 -118 c 1
 140 -112 141 -110 148 -99 c 0
 148 -98 148 -97 147 -96 c 1
 155 -91 165 -88 175 -88 c 0
 188 -88 200 -92 209 -104 c 0
 217 -115 220 -125 220 -135 c 0
 220 -160 198 -180 173 -180 c 0
170 -93 m 1
 170 -93 159 -95 156 -102 c 0
 155 -102 154 -102 153 -102 c 0
 147 -110 142 -121 136 -130 c 1
 136 -133 138 -139 138 -139 c 1
 147 -128 161 -108 170 -93 c 1
176 -94 m 1
 165 -110 151 -131 142 -144 c 1
 144 -147 147 -150 150 -152 c 1
 161 -134 171 -114 182 -96 c 1
 180 -95 178 -95 176 -94 c 1
188 -99 m 1
 178 -114 166 -137 155 -156 c 1
 157 -157 160 -159 162 -160 c 1
 171 -143 181 -126 194 -104 c 1
 192 -102 190 -100 188 -99 c 1
198 -109 m 1
 190 -123 179 -145 169 -161 c 1
 172 -161 175 -162 178 -162 c 1
 186 -148 192 -134 202 -118 c 1
 201 -115 200 -112 198 -109 c 1
186 -160 m 1
 195 -156 204 -146 204 -133 c 0
 204 -132 204 -130 204 -129 c 1
 200 -138 194 -149 186 -160 c 1
EndSplineSet
Validated: 1
EndChar

StartChar: g
Encoding: 103 103 12
Width: 281
VWidth: -2419
Flags: W
HStem: -180 93<164.376 225.575> -74 93<165.099 225.576> 33 92<165.099 225.576> 139 93<164.376 225.575> 298 93<164.376 225.575> 400 93<164.376 225.575> 502 92<165.099 225.576> 595 93<79.3772 145.063> 688 18<166.022 213.102> 733 46<58 104> 765 7<164.094 169.929> 774 7<167 168.363 179.05 202.853>
VStem: 57 96<603.433 677.025> 58 46<733 779> 142 12<721.673 759.936> 221 16<715.154 759.402>
LayerCount: 2
Fore
SplineSet
105 595 m 0xff09
 76 595 57 620 57 643 c 0xff09
 57 660 65 676 80 685 c 0
 82 686 91 689 83 683 c 1
 72 682 81 674 79 679 c 1
 87 684 98 688 108 688 c 0
 121 688 133 683 142 671 c 0xff03
 150 661 153 650 153 640 c 0
 153 614 130 595 105 595 c 0xff09
190 502 m 0
 162 502 142 527 142 549 c 0xfe03
 142 565 150 582 165 591 c 0
 167 592 176 596 168 590 c 1
 157 589 166 580 164 585 c 1
 172 591 183 594 193 594 c 0
 205 594 217 589 226 578 c 0
 234 567 237 557 237 547 c 0
 237 522 215 502 190 502 c 0
190 400 m 0
 161 400 142 425 142 448 c 0
 142 465 150 481 165 490 c 0
 167 491 176 494 168 488 c 1
 157 487 166 479 164 484 c 1
 172 489 182 493 192 493 c 0
 204 493 217 488 226 476 c 0
 234 465 237 455 237 445 c 0
 237 420 215 400 190 400 c 0
190 298 m 0
 161 298 142 323 142 346 c 0
 142 363 150 379 165 388 c 0
 167 389 176 392 168 386 c 1
 157 385 166 377 164 382 c 1
 172 387 182 391 192 391 c 0
 204 391 217 386 226 374 c 0
 234 363 237 353 237 343 c 0
 237 318 215 298 190 298 c 0
190 139 m 0
 161 139 142 164 142 187 c 0
 142 204 150 220 165 229 c 0
 167 230 176 233 168 227 c 1
 157 226 166 218 164 223 c 1
 172 228 182 232 192 232 c 0
 204 232 217 227 226 215 c 0
 234 204 237 194 237 184 c 0
 237 159 215 139 190 139 c 0
190 33 m 0
 161 33 142 58 142 81 c 0
 142 98 150 114 165 123 c 0
 167 124 176 127 168 121 c 1
 157 120 166 111 164 116 c 1
 172 122 183 125 193 125 c 0
 205 125 217 120 226 109 c 0
 234 98 237 88 237 78 c 0
 237 53 215 33 190 33 c 0
189 -74 m 0
 161 -74 142 -48 142 -26 c 0
 142 -9 150 7 165 16 c 0
 167 17 176 21 168 15 c 1
 157 14 166 5 164 10 c 1
 172 16 183 19 193 19 c 0
 205 19 217 14 226 3 c 0
 234 -8 237 -18 237 -28 c 0
 237 -54 214 -74 189 -74 c 0
190 -180 m 0
 161 -180 142 -155 142 -132 c 0
 142 -115 150 -99 165 -90 c 0
 167 -89 176 -86 168 -92 c 1
 157 -93 166 -101 164 -96 c 1
 172 -91 182 -87 192 -87 c 0
 204 -87 217 -92 226 -104 c 0
 234 -115 237 -125 237 -135 c 0
 237 -160 215 -180 190 -180 c 0
191 706 m 0xfec3
 209 706 221 718 221 737 c 0
 221 747 218 757 211 764 c 0
 208 767 200 774 193 774 c 0
 186 774 178 772 173 765 c 0
 172 765 172 765 172 765 c 0
 169 765 166 768 164 772 c 1
 172 777 182 781 192 781 c 0xfeb3
 204 781 217 776 226 764 c 0
 234 753 237 743 237 733 c 0
 237 708 215 688 190 688 c 0
 161 688 142 713 142 736 c 0
 142 753 150 769 165 778 c 0
 167 779 176 782 168 776 c 0
 167 776 l 0
 160 776 154 756 154 740 c 0
 154 719 172 706 191 706 c 0xfec3
58 733 m 1xfe45
 58 779 l 1
 104 779 l 1
 104 733 l 1
 58 733 l 1xfe45
EndSplineSet
Validated: 1
EndChar

StartChar: h
Encoding: 104 104 13
Width: 281
VWidth: -2419
Flags: W
HStem: -180 18<167.097 212.301> -93 6<171.085 199.95> -92 2<167 168> -74 93<165.099 225.576> 33 92<165.099 225.576> 139 93<164.376 225.575> 298 93<164.376 225.575> 400 93<164.376 225.575> 502 92<165.099 225.576> 595 93<79.3772 145.063> 688 93<164.376 225.575> 733 46<58 104>
VStem: 57 96<603.433 677.025> 58 46<733 779> 142 10<-142.688 -110.058> 221 16<-152.659 -108.579>
LayerCount: 2
Fore
SplineSet
105 595 m 0x9fc9
 76 595 57 620 57 643 c 0x9fc9
 57 660 65 676 80 685 c 0
 82 686 91 689 83 683 c 1
 72 682 81 674 79 679 c 1
 87 684 98 688 108 688 c 0
 121 688 133 683 142 671 c 0x9fc3
 150 661 153 650 153 640 c 0
 153 614 130 595 105 595 c 0x9fc9
190 688 m 0x9fa3
 161 688 142 713 142 736 c 0
 142 753 150 769 165 778 c 0
 167 779 176 782 168 776 c 1
 157 775 166 767 164 772 c 1
 172 777 182 781 192 781 c 0x9fa3
 204 781 217 776 226 764 c 0
 234 753 237 743 237 733 c 0x9f93
 237 708 215 688 190 688 c 0x9fa3
190 502 m 0
 162 502 142 527 142 549 c 0
 142 565 150 582 165 591 c 0
 167 592 176 596 168 590 c 1
 157 589 166 580 164 585 c 1
 172 591 183 594 193 594 c 0
 205 594 217 589 226 578 c 0
 234 567 237 557 237 547 c 0
 237 522 215 502 190 502 c 0
190 400 m 0
 161 400 142 425 142 448 c 0
 142 465 150 481 165 490 c 0
 167 491 176 494 168 488 c 1
 157 487 166 479 164 484 c 1
 172 489 182 493 192 493 c 0
 204 493 217 488 226 476 c 0
 234 465 237 455 237 445 c 0
 237 420 215 400 190 400 c 0
190 298 m 0
 161 298 142 323 142 346 c 0
 142 363 150 379 165 388 c 0
 167 389 176 392 168 386 c 1
 157 385 166 377 164 382 c 1
 172 387 182 391 192 391 c 0
 204 391 217 386 226 374 c 0
 234 363 237 353 237 343 c 0
 237 318 215 298 190 298 c 0
190 139 m 0
 161 139 142 164 142 187 c 0
 142 204 150 220 165 229 c 0
 167 230 176 233 168 227 c 1
 157 226 166 218 164 223 c 1
 172 228 182 232 192 232 c 0
 204 232 217 227 226 215 c 0
 234 204 237 194 237 184 c 0
 237 159 215 139 190 139 c 0
190 -180 m 0
 161 -180 142 -155 142 -132 c 0
 142 -115 150 -99 165 -90 c 0
 167 -89 176 -86 168 -92 c 0
 167 -92 l 0xbf83
 160 -92 152 -112 152 -127 c 0
 152 -149 177 -162 192 -162 c 0
 207 -162 221 -150 221 -132 c 0
 221 -112 208 -93 186 -93 c 0
 180 -93 176 -95 173 -102 c 1
 165 -102 166 -101 164 -96 c 1
 172 -91 182 -87 192 -87 c 0xdf83
 204 -87 217 -92 226 -104 c 0
 234 -115 237 -125 237 -135 c 0
 237 -160 215 -180 190 -180 c 0
190 33 m 0
 161 33 142 58 142 81 c 0
 142 98 150 114 165 123 c 0
 167 124 176 127 168 121 c 1
 157 120 166 111 164 116 c 1
 172 122 183 125 193 125 c 0
 205 125 217 120 226 109 c 0
 234 98 237 88 237 78 c 0
 237 53 215 33 190 33 c 0
189 -74 m 0
 161 -74 142 -48 142 -26 c 0
 142 -9 150 7 165 16 c 0
 167 17 176 21 168 15 c 1
 157 14 166 5 164 10 c 1
 172 16 183 19 193 19 c 0
 205 19 217 14 226 3 c 0
 234 -8 237 -18 237 -28 c 0
 237 -54 214 -74 189 -74 c 0
58 733 m 1x9f95
 58 779 l 1
 104 779 l 1
 104 733 l 1
 58 733 l 1x9f95
EndSplineSet
Validated: 1
EndChar

StartChar: j
Encoding: 106 106 14
Width: 281
VWidth: -2419
Flags: W
HStem: -180 18<167.097 212.301> -93 6<171.085 199.95> -92 2<167 168> -74 19<166.539 213.165> 13 6<177.158 200.111> 33 18<167.097 212.301> 119 6<177.327 200.819> 121 2<167 168> 139 93<164.376 225.575> 298 93<164.376 225.575> 400 93<164.376 225.575> 502 92<165.099 225.576> 595 93<79.3772 145.063> 688 93<164.376 225.575> 733 46<58 104>
VStem: 58 46<733 779> 142 10<-142.688 -110.058 -35.4932 -3.91954 70.312 102.942> 221 16<-152.659 -108.579 -45.4258 -1.7704 60.3412 104.23>
LayerCount: 2
Fore
SplineSet
105 595 m 0x9cf9c0
 76 595 57 620 57 643 c 0
 57 660 65 676 80 685 c 0
 82 686 91 689 83 683 c 1
 72 682 81 674 79 679 c 1
 87 684 98 688 108 688 c 0
 121 688 133 683 142 671 c 0
 150 661 153 650 153 640 c 0
 153 614 130 595 105 595 c 0x9cf9c0
190 688 m 0x9cf5c0
 161 688 142 713 142 736 c 0
 142 753 150 769 165 778 c 0
 167 779 176 782 168 776 c 1
 157 775 166 767 164 772 c 1
 172 777 182 781 192 781 c 0x9cf5c0
 204 781 217 776 226 764 c 0
 234 753 237 743 237 733 c 0x9cf3c0
 237 708 215 688 190 688 c 0x9cf5c0
190 33 m 0
 161 33 142 58 142 81 c 0
 142 98 150 114 165 123 c 0
 167 124 176 127 168 121 c 0
 167 121 l 0x9df1c0
 160 121 152 101 152 86 c 0
 152 64 177 51 192 51 c 0
 207 51 221 63 221 81 c 0
 221 101 209 119 187 119 c 0
 181 119 176 117 173 110 c 1
 165 110 166 111 164 116 c 1
 172 122 183 125 193 125 c 0x9ef1c0
 205 125 217 120 226 109 c 0
 234 98 237 88 237 78 c 0
 237 53 215 33 190 33 c 0
189 -74 m 0
 161 -74 142 -48 142 -26 c 0
 142 -9 150 7 165 16 c 0
 167 17 176 21 168 15 c 0
 167 15 l 0
 160 15 152 -5 152 -20 c 0
 152 -42 177 -55 192 -55 c 0
 207 -55 221 -43 221 -25 c 0
 221 -5 208 13 186 13 c 0
 180 13 176 11 173 4 c 1
 165 4 166 5 164 10 c 1
 172 16 183 19 193 19 c 0
 205 19 217 14 226 3 c 0
 234 -8 237 -18 237 -28 c 0
 237 -54 214 -74 189 -74 c 0
190 502 m 0
 162 502 142 527 142 549 c 0
 142 565 150 582 165 591 c 0
 167 592 176 596 168 590 c 1
 157 589 166 580 164 585 c 1
 172 591 183 594 193 594 c 0
 205 594 217 589 226 578 c 0
 234 567 237 557 237 547 c 0
 237 522 215 502 190 502 c 0
190 400 m 0
 161 400 142 425 142 448 c 0
 142 465 150 481 165 490 c 0
 167 491 176 494 168 488 c 1
 157 487 166 479 164 484 c 1
 172 489 182 493 192 493 c 0
 204 493 217 488 226 476 c 0
 234 465 237 455 237 445 c 0
 237 420 215 400 190 400 c 0
190 298 m 0
 161 298 142 323 142 346 c 0
 142 363 150 379 165 388 c 0
 167 389 176 392 168 386 c 1
 157 385 166 377 164 382 c 1
 172 387 182 391 192 391 c 0
 204 391 217 386 226 374 c 0
 234 363 237 353 237 343 c 0
 237 318 215 298 190 298 c 0
190 139 m 0
 161 139 142 164 142 187 c 0
 142 204 150 220 165 229 c 0
 167 230 176 233 168 227 c 1
 157 226 166 218 164 223 c 1
 172 228 182 232 192 232 c 0
 204 232 217 227 226 215 c 0
 234 204 237 194 237 184 c 0
 237 159 215 139 190 139 c 0
190 -180 m 0
 161 -180 142 -155 142 -132 c 0
 142 -115 150 -99 165 -90 c 0
 167 -89 176 -86 168 -92 c 0
 167 -92 l 0xbcf1c0
 160 -92 152 -112 152 -127 c 0
 152 -149 177 -162 192 -162 c 0
 207 -162 221 -150 221 -132 c 0
 221 -112 208 -93 186 -93 c 0
 180 -93 176 -95 173 -102 c 1
 165 -102 166 -101 164 -96 c 1
 172 -91 182 -87 192 -87 c 0xdcf1c0
 204 -87 217 -92 226 -104 c 0
 234 -115 237 -125 237 -135 c 0
 237 -160 215 -180 190 -180 c 0
58 733 m 1x9cf3c0
 58 779 l 1
 104 779 l 1
 104 733 l 1
 58 733 l 1x9cf3c0
EndSplineSet
Validated: 1
EndChar

StartChar: m
Encoding: 109 109 15
Width: 264
VWidth: -2419
Flags: W
HStem: -180 19<169 189.956> -74 19<149.539 196.165> 13 6<160.158 183.111> 33 18<150.097 195.301> 119 6<160.327 183.819> 121 2<150 151> 139 93<147.376 208.575> 298 93<147.376 208.575> 400 93<147.376 208.575> 502 18<150.317 195.301> 588 6<160.327 183.819> 595 93<62.3772 128.063> 688 93<147.376 208.575>
VStem: 40 96<603.433 677.025> 125 10<-138.499 -124.127 -35.4932 -3.91954 70.312 102.942 539.534 570.513> 204 16<-152.578 -129 -45.4258 -1.7704 60.3412 104.23 529.341 573.23>
LayerCount: 2
Fore
SplineSet
88 595 m 0xf3f5
 59 595 40 620 40 643 c 0xf3f5
 40 660 48 676 63 685 c 0
 65 686 74 689 66 683 c 1
 55 682 64 674 62 679 c 1
 70 684 81 688 91 688 c 0
 104 688 116 683 125 671 c 0xf3f3
 133 661 136 650 136 640 c 0
 136 614 113 595 88 595 c 0xf3f5
173 688 m 0xf3eb
 144 688 125 713 125 736 c 0
 125 753 133 769 148 778 c 0
 150 779 159 782 151 776 c 1
 140 775 149 767 147 772 c 1
 155 777 165 781 175 781 c 0
 187 781 200 776 209 764 c 0
 217 753 220 743 220 733 c 0
 220 708 198 688 173 688 c 0xf3eb
173 33 m 0
 144 33 125 58 125 81 c 0
 125 98 133 114 148 123 c 0
 150 124 159 127 151 121 c 0
 150 121 l 0xf7e3
 143 121 135 101 135 86 c 0
 135 64 160 51 175 51 c 0
 190 51 204 63 204 81 c 0
 204 101 192 119 170 119 c 0
 164 119 159 117 156 110 c 1
 148 110 149 111 147 116 c 1
 155 122 166 125 176 125 c 0xfbe3
 188 125 200 120 209 109 c 0
 217 98 220 88 220 78 c 0
 220 53 198 33 173 33 c 0
172 -74 m 0
 144 -74 125 -48 125 -26 c 0
 125 -9 133 7 148 16 c 0
 150 17 159 21 151 15 c 0
 150 15 l 0
 143 15 135 -5 135 -20 c 0
 135 -42 160 -55 175 -55 c 0
 190 -55 204 -43 204 -25 c 0
 204 -5 191 13 169 13 c 0
 163 13 159 11 156 4 c 1
 148 4 149 5 147 10 c 1
 155 16 166 19 176 19 c 0
 188 19 200 14 209 3 c 0
 217 -8 220 -18 220 -28 c 0
 220 -54 197 -74 172 -74 c 0
173 -180 m 0
 144 -180 125 -155 125 -132 c 0xf3e3
 125 -115 133 -99 148 -90 c 0
 150 -89 159 -86 151 -92 c 1
 143 -94 136 -106 136 -118 c 1xf3e5
 140 -112 141 -110 148 -99 c 0
 148 -98 148 -97 147 -96 c 1
 155 -91 164 -88 174 -88 c 0
 187 -88 200 -92 209 -104 c 0
 217 -115 220 -125 220 -135 c 0
 220 -160 198 -180 173 -180 c 0
170 -93 m 1
 170 -93 159 -95 156 -102 c 0
 155 -102 154 -102 153 -102 c 0
 147 -110 142 -121 136 -130 c 1xf3e5
 136 -133 138 -139 138 -139 c 1
 147 -128 161 -108 170 -93 c 1
176 -94 m 1
 165 -110 151 -131 142 -144 c 1
 144 -147 147 -150 150 -152 c 1
 161 -134 171 -114 182 -96 c 1
 180 -95 178 -95 176 -94 c 1
188 -99 m 1
 178 -114 166 -137 155 -156 c 1
 157 -157 160 -159 162 -160 c 1
 171 -143 181 -126 194 -104 c 1
 192 -102 190 -100 188 -99 c 1
198 -109 m 1
 190 -123 179 -145 169 -161 c 1
 172 -161 175 -162 178 -162 c 1
 186 -148 192 -134 202 -118 c 1
 201 -115 200 -112 198 -109 c 1
186 -160 m 1
 195 -156 204 -146 204 -133 c 0
 204 -132 204 -130 204 -129 c 1
 200 -138 194 -149 186 -160 c 1
173 400 m 0
 144 400 125 425 125 448 c 0xf3e3
 125 465 133 481 148 490 c 0
 150 491 159 494 151 488 c 1
 140 487 149 479 147 484 c 1
 155 489 165 493 175 493 c 0
 187 493 200 488 209 476 c 0
 217 465 220 455 220 445 c 0
 220 420 198 400 173 400 c 0
173 502 m 0
 145 502 125 527 125 549 c 0
 125 565 133 582 148 591 c 0
 150 592 159 596 151 590 c 0
 150 590 l 0
 143 590 135 570 135 555 c 0
 135 533 160 520 175 520 c 0
 190 520 204 532 204 550 c 0
 204 570 192 588 170 588 c 0
 164 588 159 586 156 579 c 1
 148 579 149 580 147 585 c 1
 155 591 166 594 176 594 c 0
 188 594 200 589 209 578 c 0
 217 567 220 557 220 547 c 0
 220 522 198 502 173 502 c 0
173 298 m 0
 144 298 125 323 125 346 c 0
 125 363 133 379 148 388 c 0
 150 389 159 392 151 386 c 1
 140 385 149 377 147 382 c 1
 155 387 165 391 175 391 c 0
 187 391 200 386 209 374 c 0
 217 363 220 353 220 343 c 0
 220 318 198 298 173 298 c 0
173 139 m 0
 144 139 125 164 125 187 c 0
 125 204 133 220 148 229 c 0
 150 230 159 233 151 227 c 1
 140 226 149 218 147 223 c 1
 155 228 165 232 175 232 c 0
 187 232 200 227 209 215 c 0
 217 204 220 194 220 184 c 0
 220 159 198 139 173 139 c 0
EndSplineSet
Validated: 1
EndChar

StartChar: n
Encoding: 110 110 16
Width: 264
VWidth: -2419
Flags: W
HStem: -180 19<169 189.956> -74 19<149.539 196.165> 13 6<160.158 183.111> 33 18<150.097 195.301> 119 6<160.327 183.819> 121 2<150 151> 139 18<150.097 195.301> 225 7<159.784 184.922> 227 2<150 151> 298 18<150.097 195.301> 385 6<154.085 182.95> 386 2<150 151> 400 93<147.376 208.575> 502 92<148.099 208.576> 595 93<62.3772 128.063> 688 93<147.376 208.575>
VStem: 40 96<603.433 677.025> 125 10<-138.499 -124.127 -35.4932 -3.91954 70.312 102.942 176.312 208.942 335.312 367.942> 204 16<-152.578 -129 -45.4258 -1.7704 60.3412 104.23 166.341 210.23 325.341 369.421>
LayerCount: 2
Fore
SplineSet
88 595 m 0xf24ea0
 59 595 40 620 40 643 c 0xf24ea0
 40 660 48 676 63 685 c 0
 65 686 74 689 66 683 c 1
 55 682 64 674 62 679 c 1
 70 684 81 688 91 688 c 0
 104 688 116 683 125 671 c 0xf24e60
 133 661 136 650 136 640 c 0
 136 614 113 595 88 595 c 0xf24ea0
173 688 m 0xf24d60
 144 688 125 713 125 736 c 0
 125 753 133 769 148 778 c 0
 150 779 159 782 151 776 c 1
 140 775 149 767 147 772 c 1
 155 777 165 781 175 781 c 0
 187 781 200 776 209 764 c 0
 217 753 220 743 220 733 c 0
 220 708 198 688 173 688 c 0xf24d60
173 139 m 0
 144 139 125 164 125 187 c 0
 125 204 133 220 148 229 c 0
 150 230 159 233 151 227 c 0
 150 227 l 0xf2cc60
 143 227 135 207 135 192 c 0
 135 170 160 157 175 157 c 0
 190 157 204 169 204 187 c 0
 204 207 192 225 170 225 c 0
 164 225 159 223 156 216 c 1
 148 216 149 218 147 223 c 1
 155 228 165 232 175 232 c 0xf34c60
 187 232 200 227 209 215 c 0
 217 204 220 194 220 184 c 0
 220 159 198 139 173 139 c 0
173 33 m 0
 144 33 125 58 125 81 c 0
 125 98 133 114 148 123 c 0
 150 124 159 127 151 121 c 0
 150 121 l 0xf64c60
 143 121 135 101 135 86 c 0
 135 64 160 51 175 51 c 0
 190 51 204 63 204 81 c 0
 204 101 192 119 170 119 c 0
 164 119 159 117 156 110 c 1
 148 110 149 111 147 116 c 1
 155 122 166 125 176 125 c 0xfa4c60
 188 125 200 120 209 109 c 0
 217 98 220 88 220 78 c 0
 220 53 198 33 173 33 c 0
172 -74 m 0
 144 -74 125 -48 125 -26 c 0
 125 -9 133 7 148 16 c 0
 150 17 159 21 151 15 c 0
 150 15 l 0
 143 15 135 -5 135 -20 c 0
 135 -42 160 -55 175 -55 c 0
 190 -55 204 -43 204 -25 c 0
 204 -5 191 13 169 13 c 0
 163 13 159 11 156 4 c 1
 148 4 149 5 147 10 c 1
 155 16 166 19 176 19 c 0
 188 19 200 14 209 3 c 0
 217 -8 220 -18 220 -28 c 0
 220 -54 197 -74 172 -74 c 0
173 -180 m 0
 144 -180 125 -155 125 -132 c 0xf24c60
 125 -115 133 -99 148 -90 c 0
 150 -89 159 -86 151 -92 c 1
 143 -94 136 -106 136 -118 c 1xf24ca0
 140 -112 141 -110 148 -99 c 0
 148 -98 148 -97 147 -96 c 1
 155 -91 164 -88 174 -88 c 0
 187 -88 200 -92 209 -104 c 0
 217 -115 220 -125 220 -135 c 0
 220 -160 198 -180 173 -180 c 0
170 -93 m 1
 170 -93 159 -95 156 -102 c 0
 155 -102 154 -102 153 -102 c 0
 147 -110 142 -121 136 -130 c 1xf24ca0
 136 -133 138 -139 138 -139 c 1
 147 -128 161 -108 170 -93 c 1
176 -94 m 1
 165 -110 151 -131 142 -144 c 1
 144 -147 147 -150 150 -152 c 1
 161 -134 171 -114 182 -96 c 1
 180 -95 178 -95 176 -94 c 1
188 -99 m 1
 178 -114 166 -137 155 -156 c 1
 157 -157 160 -159 162 -160 c 1
 171 -143 181 -126 194 -104 c 1
 192 -102 190 -100 188 -99 c 1
198 -109 m 1
 190 -123 179 -145 169 -161 c 1
 172 -161 175 -162 178 -162 c 1
 186 -148 192 -134 202 -118 c 1
 201 -115 200 -112 198 -109 c 1
186 -160 m 1
 195 -156 204 -146 204 -133 c 0
 204 -132 204 -130 204 -129 c 1
 200 -138 194 -149 186 -160 c 1
173 502 m 0
 145 502 125 527 125 549 c 0xf24c60
 125 565 133 582 148 591 c 0
 150 592 159 596 151 590 c 1
 140 589 149 580 147 585 c 1
 155 591 166 594 176 594 c 0
 188 594 200 589 209 578 c 0
 217 567 220 557 220 547 c 0
 220 522 198 502 173 502 c 0
173 400 m 0
 144 400 125 425 125 448 c 0
 125 465 133 481 148 490 c 0
 150 491 159 494 151 488 c 1
 140 487 149 479 147 484 c 1
 155 489 165 493 175 493 c 0
 187 493 200 488 209 476 c 0
 217 465 220 455 220 445 c 0
 220 420 198 400 173 400 c 0
173 298 m 0
 144 298 125 323 125 346 c 0
 125 363 133 379 148 388 c 0
 150 389 159 392 151 386 c 0
 150 386 l 0xf25c60
 143 386 135 366 135 351 c 0
 135 329 160 316 175 316 c 0
 190 316 204 328 204 346 c 0
 204 366 191 385 169 385 c 0
 163 385 159 383 156 376 c 1
 148 376 149 377 147 382 c 1
 155 387 165 391 175 391 c 0xf26c60
 187 391 200 386 209 374 c 0
 217 363 220 353 220 343 c 0
 220 318 198 298 173 298 c 0
EndSplineSet
Validated: 1
EndChar

StartChar: q
Encoding: 113 113 17
Width: 282
VWidth: -2419
Flags: W
HStem: -180 18<168.097 213.417> -93 6<178.158 200.769> -92 2<168 169> -74 19<167.319 213.792> 13 6<178.214 201.053> 33 18<168.097 213.417> 119 6<178.384 202.041> 121 2<168 169> 139 18<168.097 213.417> 225 7<177.789 202.772> 227 2<168 169> 298 93<165.377 231.063> 400 93<165.377 231.063> 502 92<166.099 227.576> 595 93<79.3772 145.063> 688 93<165.377 231.063> 733 46<58 104>
VStem: 58 46<733 779> 143 10<-142.688 -110.058 -35.649 -3.91954 70.312 102.942 176.312 208.942> 222 17<-153.126 -107.812 -46.2037 -0.662994 59.8744 105.337 165.874 211.337>
LayerCount: 2
Fore
SplineSet
105 595 m 0x9c9e70
 76 595 57 620 57 643 c 0
 57 660 65 676 80 685 c 0
 82 686 91 689 83 683 c 1
 72 682 81 674 79 679 c 1
 87 684 98 688 108 688 c 0
 121 688 133 683 142 671 c 0
 150 661 153 650 153 640 c 0
 153 614 130 595 105 595 c 0x9c9e70
191 688 m 0x9c9d70
 162 688 143 713 143 736 c 0
 143 753 151 769 166 778 c 0
 168 779 177 782 169 776 c 1
 158 775 167 767 165 772 c 1
 173 777 184 781 194 781 c 0x9c9d70
 207 781 219 776 228 764 c 0
 236 754 239 743 239 733 c 0x9c9cf0
 239 707 216 688 191 688 c 0x9c9d70
191 139 m 0
 162 139 143 164 143 187 c 0
 143 204 151 220 166 229 c 0
 168 230 177 233 169 227 c 0
 168 227 l 0x9cbc70
 161 227 153 207 153 192 c 0
 153 170 178 157 193 157 c 0
 208 157 222 169 222 187 c 0
 222 207 210 225 188 225 c 0
 182 225 177 223 174 216 c 1
 166 216 167 218 165 223 c 1
 173 228 184 232 194 232 c 0x9cdc70
 207 232 219 227 228 215 c 0
 236 205 239 194 239 184 c 0
 239 158 216 139 191 139 c 0
191 33 m 0
 162 33 143 58 143 81 c 0
 143 98 151 114 166 123 c 0
 168 124 177 127 169 121 c 0
 168 121 l 0x9d9c70
 161 121 153 101 153 86 c 0
 153 64 178 51 193 51 c 0
 208 51 222 63 222 81 c 0
 222 101 210 119 188 119 c 0
 182 119 177 117 174 110 c 1
 166 110 167 111 165 116 c 1
 173 122 184 125 195 125 c 0x9e9c70
 207 125 219 120 228 109 c 0
 236 99 239 88 239 78 c 0
 239 52 216 33 191 33 c 0
190 -74 m 0
 161 -74 143 -49 143 -26 c 0
 143 -9 151 7 166 16 c 0
 168 17 177 21 169 15 c 0
 168 15 l 0
 161 15 153 -5 153 -20 c 0
 153 -42 178 -55 193 -55 c 0
 208 -55 222 -43 222 -25 c 0
 222 -5 209 13 187 13 c 0
 181 13 177 11 174 4 c 1
 166 4 167 5 165 10 c 1
 173 16 184 19 195 19 c 0
 207 19 219 14 228 3 c 0
 236 -7 239 -18 239 -28 c 0
 239 -54 215 -74 190 -74 c 0
191 502 m 0
 163 502 143 527 143 549 c 0
 143 565 151 582 166 591 c 0
 168 592 177 596 169 590 c 1
 158 589 167 580 165 585 c 1
 173 591 184 594 195 594 c 0
 207 594 219 589 228 578 c 0
 236 568 239 557 239 547 c 0
 239 521 216 502 191 502 c 0
191 400 m 0
 162 400 143 425 143 448 c 0
 143 465 151 481 166 490 c 0
 168 491 177 494 169 488 c 1
 158 487 167 479 165 484 c 1
 173 489 184 493 194 493 c 0
 207 493 219 488 228 476 c 0
 236 466 239 455 239 445 c 0
 239 419 216 400 191 400 c 0
191 298 m 0
 162 298 143 323 143 346 c 0
 143 363 151 379 166 388 c 0
 168 389 177 392 169 386 c 1
 158 385 167 377 165 382 c 1
 173 387 184 391 194 391 c 0
 207 391 219 386 228 374 c 0
 236 364 239 353 239 343 c 0
 239 317 216 298 191 298 c 0
58 733 m 1x9c9cf0
 58 779 l 1
 104 779 l 1
 104 733 l 1
 58 733 l 1x9c9cf0
191 -180 m 0
 162 -180 143 -155 143 -132 c 0
 143 -115 151 -99 166 -90 c 0
 168 -89 177 -86 169 -92 c 0
 168 -92 l 0xbc9c70
 161 -92 153 -112 153 -127 c 0
 153 -149 178 -162 193 -162 c 0
 208 -162 222 -150 222 -132 c 0
 222 -112 209 -93 187 -93 c 0
 181 -93 177 -95 174 -102 c 1
 166 -102 167 -101 165 -96 c 1
 173 -91 184 -87 194 -87 c 0xdc9c70
 207 -87 219 -92 228 -104 c 0
 236 -114 239 -125 239 -135 c 0
 239 -161 216 -180 191 -180 c 0
EndSplineSet
Validated: 1
EndChar

StartChar: s
Encoding: 115 115 18
Width: 263
VWidth: -2419
Flags: W
HStem: -180 19<169 189.956> -74 19<149.539 196.165> 13 6<160.158 183.111> 33 18<150.097 195.301> 119 6<160.327 183.819> 121 2<150 151> 139 18<150.097 195.301> 225 7<159.784 184.922> 227 2<150 151> 298 18<150.097 195.301> 385 6<154.085 182.95> 386 2<150 151> 400 18<150.097 195.301> 486 7<159.784 184.922> 488 2<150 151> 502 18<150.317 195.301> 588 6<160.327 183.819> 595 18<65.0967 111.366> 681 7<74.7888 100.541> 683 2<62.3457 66> 688 93<147.376 208.575>
VStem: 40 10<632.312 664.942> 125 10<-138.499 -124.127 -35.4932 -3.91954 70.312 102.942 176.312 208.942 335.312 367.942 437.312 469.942 539.534 570.513> 204 16<-152.578 -129 -45.4258 -1.7704 60.3412 104.23 166.341 210.23 325.341 369.421 427.341 471.23 529.341 573.23>
LayerCount: 2
Fore
SplineSet
173 400 m 0xf24dc7
 144 400 125 425 125 448 c 0
 125 465 133 481 148 490 c 0
 150 491 159 494 151 488 c 0
 150 488 l 0xf24bc7
 143 488 135 468 135 453 c 0
 135 431 160 418 175 418 c 0
 190 418 204 430 204 448 c 0
 204 468 192 486 170 486 c 0
 164 486 159 484 156 477 c 1
 148 477 149 479 147 484 c 1
 155 489 165 493 175 493 c 0
 187 493 200 488 209 476 c 0
 217 465 220 455 220 445 c 0
 220 420 198 400 173 400 c 0xf24dc7
173 298 m 0
 144 298 125 323 125 346 c 0
 125 363 133 379 148 388 c 0
 150 389 159 392 151 386 c 0
 150 386 l 0xf259c7
 143 386 135 366 135 351 c 0
 135 329 160 316 175 316 c 0
 190 316 204 328 204 346 c 0
 204 366 191 385 169 385 c 0
 163 385 159 383 156 376 c 1
 148 376 149 377 147 382 c 1
 155 387 165 391 175 391 c 0xf269c7
 187 391 200 386 209 374 c 0
 217 363 220 353 220 343 c 0
 220 318 198 298 173 298 c 0
173 502 m 0
 145 502 125 527 125 549 c 0
 125 565 133 582 148 591 c 0
 150 592 159 596 151 590 c 0
 150 590 l 0
 143 590 135 570 135 555 c 0
 135 533 160 520 175 520 c 0
 190 520 204 532 204 550 c 0
 204 570 192 588 170 588 c 0
 164 588 159 586 156 579 c 1
 148 579 149 580 147 585 c 1
 155 591 166 594 176 594 c 0
 188 594 200 589 209 578 c 0
 217 567 220 557 220 547 c 0
 220 522 198 502 173 502 c 0
173 688 m 0xf249cf
 144 688 125 713 125 736 c 0
 125 753 133 769 148 778 c 0
 150 779 159 782 151 776 c 1
 140 775 149 767 147 772 c 1
 155 777 165 781 175 781 c 0
 187 781 200 776 209 764 c 0
 217 753 220 743 220 733 c 0
 220 708 198 688 173 688 c 0xf249cf
88 595 m 0
 59 595 40 620 40 643 c 0
 40 660 48 676 63 685 c 0
 65 686 74 689 66 683 c 0
 65 683 l 0xf249d7
 58 683 50 663 50 648 c 0
 50 626 75 613 90 613 c 0
 106 613 120 625 120 644 c 0
 120 664 107 681 85 681 c 0
 79 681 74 679 71 672 c 1
 63 672 64 674 62 679 c 1
 70 684 81 688 91 688 c 0xf249e7
 104 688 116 683 125 671 c 0
 133 661 136 650 136 640 c 0
 136 614 113 595 88 595 c 0
173 139 m 0
 144 139 125 164 125 187 c 0
 125 204 133 220 148 229 c 0
 150 230 159 233 151 227 c 0
 150 227 l 0xf2c9c7
 143 227 135 207 135 192 c 0
 135 170 160 157 175 157 c 0
 190 157 204 169 204 187 c 0
 204 207 192 225 170 225 c 0
 164 225 159 223 156 216 c 1
 148 216 149 218 147 223 c 1
 155 228 165 232 175 232 c 0xf349c7
 187 232 200 227 209 215 c 0
 217 204 220 194 220 184 c 0
 220 159 198 139 173 139 c 0
173 33 m 0
 144 33 125 58 125 81 c 0
 125 98 133 114 148 123 c 0
 150 124 159 127 151 121 c 0
 150 121 l 0xf649c7
 143 121 135 101 135 86 c 0
 135 64 160 51 175 51 c 0
 190 51 204 63 204 81 c 0
 204 101 192 119 170 119 c 0
 164 119 159 117 156 110 c 1
 148 110 149 111 147 116 c 1
 155 122 166 125 176 125 c 0xfa49c7
 188 125 200 120 209 109 c 0
 217 98 220 88 220 78 c 0
 220 53 198 33 173 33 c 0
172 -74 m 0
 144 -74 125 -48 125 -26 c 0
 125 -9 133 7 148 16 c 0
 150 17 159 21 151 15 c 0
 150 15 l 0
 143 15 135 -5 135 -20 c 0
 135 -42 160 -55 175 -55 c 0
 190 -55 204 -43 204 -25 c 0
 204 -5 191 13 169 13 c 0
 163 13 159 11 156 4 c 1
 148 4 149 5 147 10 c 1
 155 16 166 19 176 19 c 0
 188 19 200 14 209 3 c 0
 217 -8 220 -18 220 -28 c 0
 220 -54 197 -74 172 -74 c 0
173 -180 m 0
 144 -180 125 -155 125 -132 c 0
 125 -115 133 -99 148 -90 c 0
 150 -89 159 -86 151 -92 c 1
 143 -94 136 -106 136 -118 c 1
 140 -112 141 -110 148 -99 c 0
 148 -98 148 -97 147 -96 c 1
 155 -91 165 -88 175 -88 c 0
 188 -88 200 -92 209 -104 c 0
 217 -115 220 -125 220 -135 c 0
 220 -160 198 -180 173 -180 c 0
170 -93 m 1
 170 -93 159 -95 156 -102 c 0
 155 -102 154 -102 153 -102 c 0
 147 -110 142 -121 136 -130 c 1
 136 -133 138 -139 138 -139 c 1
 147 -128 161 -108 170 -93 c 1
176 -94 m 1
 165 -110 151 -131 142 -144 c 1
 144 -147 147 -150 150 -152 c 1
 161 -134 171 -114 182 -96 c 1
 180 -95 178 -95 176 -94 c 1
188 -99 m 1
 178 -114 166 -137 155 -156 c 1
 157 -157 160 -159 162 -160 c 1
 171 -143 181 -126 194 -104 c 1
 192 -102 190 -100 188 -99 c 1
198 -109 m 1
 190 -123 179 -145 169 -161 c 1
 172 -161 175 -162 178 -162 c 1
 186 -148 192 -134 202 -118 c 1
 201 -115 200 -112 198 -109 c 1
186 -160 m 1
 195 -156 204 -146 204 -133 c 0
 204 -132 204 -130 204 -129 c 1
 200 -138 194 -149 186 -160 c 1
EndSplineSet
Validated: 1
EndChar

StartChar: v
Encoding: 118 118 19
Width: 264
VWidth: -2419
Flags: W
HStem: -180 18<150.097 195.301> -93 6<154.085 182.95> -92 2<150 151> -74 19<149.539 196.165> 13 6<160.158 183.111> 33 18<150.097 195.301> 119 6<160.327 183.819> 121 2<150 151> 139 93<147.376 208.575> 298 93<147.376 208.575> 400 93<147.376 208.575> 502 92<148.099 208.576> 595 93<62.3772 128.063> 688 93<147.376 208.575>
VStem: 40 96<603.433 677.025> 125 10<-142.688 -110.058 -35.4932 -3.91954 70.312 102.942> 204 16<-152.659 -108.579 -45.4258 -1.7704 60.3412 104.23>
LayerCount: 2
Fore
SplineSet
88 595 m 0x9cfa80
 59 595 40 620 40 643 c 0x9cfa80
 40 660 48 676 63 685 c 0
 65 686 74 689 66 683 c 1
 55 682 64 674 62 679 c 1
 70 684 81 688 91 688 c 0
 104 688 116 683 125 671 c 0x9cf980
 133 661 136 650 136 640 c 0
 136 614 113 595 88 595 c 0x9cfa80
173 688 m 0x9cf580
 144 688 125 713 125 736 c 0
 125 753 133 769 148 778 c 0
 150 779 159 782 151 776 c 1
 140 775 149 767 147 772 c 1
 155 777 165 781 175 781 c 0
 187 781 200 776 209 764 c 0
 217 753 220 743 220 733 c 0
 220 708 198 688 173 688 c 0x9cf580
173 33 m 0
 144 33 125 58 125 81 c 0
 125 98 133 114 148 123 c 0
 150 124 159 127 151 121 c 0
 150 121 l 0x9df180
 143 121 135 101 135 86 c 0
 135 64 160 51 175 51 c 0
 190 51 204 63 204 81 c 0
 204 101 192 119 170 119 c 0
 164 119 159 117 156 110 c 1
 148 110 149 111 147 116 c 1
 155 122 166 125 176 125 c 0x9ef180
 188 125 200 120 209 109 c 0
 217 98 220 88 220 78 c 0
 220 53 198 33 173 33 c 0
172 -74 m 0
 144 -74 125 -48 125 -26 c 0
 125 -9 133 7 148 16 c 0
 150 17 159 21 151 15 c 0
 150 15 l 0
 143 15 135 -5 135 -20 c 0
 135 -42 160 -55 175 -55 c 0
 190 -55 204 -43 204 -25 c 0
 204 -5 191 13 169 13 c 0
 163 13 159 11 156 4 c 1
 148 4 149 5 147 10 c 1
 155 16 166 19 176 19 c 0
 188 19 200 14 209 3 c 0
 217 -8 220 -18 220 -28 c 0
 220 -54 197 -74 172 -74 c 0
173 502 m 0
 145 502 125 527 125 549 c 0
 125 565 133 582 148 591 c 0
 150 592 159 596 151 590 c 1
 140 589 149 580 147 585 c 1
 155 591 166 594 176 594 c 0
 188 594 200 589 209 578 c 0
 217 567 220 557 220 547 c 0
 220 522 198 502 173 502 c 0
173 400 m 0
 144 400 125 425 125 448 c 0
 125 465 133 481 148 490 c 0
 150 491 159 494 151 488 c 1
 140 487 149 479 147 484 c 1
 155 489 165 493 175 493 c 0
 187 493 200 488 209 476 c 0
 217 465 220 455 220 445 c 0
 220 420 198 400 173 400 c 0
173 298 m 0
 144 298 125 323 125 346 c 0
 125 363 133 379 148 388 c 0
 150 389 159 392 151 386 c 1
 140 385 149 377 147 382 c 1
 155 387 165 391 175 391 c 0
 187 391 200 386 209 374 c 0
 217 363 220 353 220 343 c 0
 220 318 198 298 173 298 c 0
173 139 m 0
 144 139 125 164 125 187 c 0
 125 204 133 220 148 229 c 0
 150 230 159 233 151 227 c 1
 140 226 149 218 147 223 c 1
 155 228 165 232 175 232 c 0
 187 232 200 227 209 215 c 0
 217 204 220 194 220 184 c 0
 220 159 198 139 173 139 c 0
173 -180 m 0
 144 -180 125 -155 125 -132 c 0
 125 -115 133 -99 148 -90 c 0
 150 -89 159 -86 151 -92 c 0
 150 -92 l 0xbcf180
 143 -92 135 -112 135 -127 c 0
 135 -149 160 -162 175 -162 c 0
 190 -162 204 -150 204 -132 c 0
 204 -112 191 -93 169 -93 c 0
 163 -93 159 -95 156 -102 c 1
 148 -102 149 -101 147 -96 c 1
 155 -91 165 -87 175 -87 c 0xdcf180
 187 -87 200 -92 209 -104 c 0
 217 -115 220 -125 220 -135 c 0
 220 -160 198 -180 173 -180 c 0
EndSplineSet
Validated: 1
EndChar

StartChar: V
Encoding: 86 86 20
Width: 265
VWidth: -2419
Flags: W
HStem: -180 93<148.376 209.575> -74 93<149.099 209.576> 33 92<149.099 209.576> 139 18<150.068 197.035> 225 7<151 152.363 165.643 187.051> 298 93<148.376 209.575> 400 93<148.376 209.575> 502 92<149.099 209.576> 595 93<63.3772 129.063> 688 93<148.376 209.575>
VStem: 41 96<603.433 677.025> 126 10<175.919 208.942> 205 16<166.085 210.349>
LayerCount: 2
Fore
SplineSet
89 595 m 0xffa8
 60 595 41 620 41 643 c 0xffa8
 41 660 49 676 64 685 c 0
 66 686 75 689 67 683 c 1
 56 682 65 674 63 679 c 1
 71 684 82 688 92 688 c 0
 105 688 117 683 126 671 c 0xff98
 134 661 137 650 137 640 c 0
 137 614 114 595 89 595 c 0xffa8
174 688 m 0xff58
 145 688 126 713 126 736 c 0
 126 753 134 769 149 778 c 0
 151 779 160 782 152 776 c 1
 141 775 150 767 148 772 c 1
 156 777 166 781 176 781 c 0
 188 781 201 776 210 764 c 0
 218 753 221 743 221 733 c 0
 221 708 199 688 174 688 c 0xff58
174 502 m 0
 146 502 126 527 126 549 c 0
 126 565 134 582 149 591 c 0
 151 592 160 596 152 590 c 1
 141 589 150 580 148 585 c 1
 156 591 167 594 177 594 c 0
 189 594 201 589 210 578 c 0
 218 567 221 557 221 547 c 0
 221 522 199 502 174 502 c 0
174 400 m 0
 145 400 126 425 126 448 c 0
 126 465 134 481 149 490 c 0
 151 491 160 494 152 488 c 1
 141 487 150 479 148 484 c 1
 156 489 166 493 176 493 c 0
 188 493 201 488 210 476 c 0
 218 465 221 455 221 445 c 0
 221 420 199 400 174 400 c 0
174 298 m 0
 145 298 126 323 126 346 c 0
 126 363 134 379 149 388 c 0
 151 389 160 392 152 386 c 1
 141 385 150 377 148 382 c 1
 156 387 166 391 176 391 c 0
 188 391 201 386 210 374 c 0
 218 363 221 353 221 343 c 0
 221 318 199 298 174 298 c 0
177 157 m 0
 192 157 205 169 205 187 c 0
 205 197 202 208 195 215 c 0
 192 218 185 225 177 225 c 27
 168 225 157 216 157 216 c 1
 149 216 150 218 148 223 c 1
 156 228 166 232 176 232 c 0
 188 232 201 227 210 215 c 0
 218 204 221 194 221 184 c 0
 221 159 199 139 174 139 c 0
 145 139 126 164 126 187 c 0
 126 204 134 220 149 229 c 0
 151 230 160 233 152 227 c 0
 151 227 l 0
 144 227 136 207 136 192 c 0
 136 170 158 157 177 157 c 0
174 33 m 0
 145 33 126 58 126 81 c 0
 126 98 134 114 149 123 c 0
 151 124 160 127 152 121 c 1
 141 120 150 111 148 116 c 1
 156 122 167 125 177 125 c 0
 189 125 201 120 210 109 c 0
 218 98 221 88 221 78 c 0
 221 53 199 33 174 33 c 0
174 -180 m 0
 145 -180 126 -155 126 -132 c 0
 126 -115 134 -99 149 -90 c 0
 151 -89 160 -86 152 -92 c 1
 141 -93 150 -101 148 -96 c 1
 156 -91 166 -87 176 -87 c 0
 188 -87 201 -92 210 -104 c 0
 218 -115 221 -125 221 -135 c 0
 221 -160 199 -180 174 -180 c 0
173 -74 m 0
 145 -74 126 -48 126 -26 c 0
 126 -9 134 7 149 16 c 0
 151 17 160 21 152 15 c 1
 141 14 150 5 148 10 c 1
 156 16 167 19 177 19 c 0
 189 19 201 14 210 3 c 0
 218 -8 221 -18 221 -28 c 0
 221 -54 198 -74 173 -74 c 0
EndSplineSet
Validated: 1
EndChar

StartChar: x
Encoding: 120 120 21
Width: 264
VWidth: -2419
Flags: W
HStem: -180 18<150.097 195.301> -93 6<154.085 182.95> -92 2<150 151> -74 93<148.099 208.576> 33 92<148.099 208.576> 139 93<147.376 208.575> 298 93<147.376 208.575> 400 93<147.376 208.575> 502 92<148.099 208.576> 595 93<62.3772 128.063> 688 93<147.376 208.575>
VStem: 40 96<603.433 677.025> 125 10<-142.688 -110.058> 204 16<-152.659 -108.579>
LayerCount: 2
Fore
SplineSet
88 595 m 0x9fd4
 59 595 40 620 40 643 c 0x9fd4
 40 660 48 676 63 685 c 0
 65 686 74 689 66 683 c 1
 55 682 64 674 62 679 c 1
 70 684 81 688 91 688 c 0
 104 688 116 683 125 671 c 0x9fcc
 133 661 136 650 136 640 c 0
 136 614 113 595 88 595 c 0x9fd4
173 688 m 0x9fac
 144 688 125 713 125 736 c 0
 125 753 133 769 148 778 c 0
 150 779 159 782 151 776 c 1
 140 775 149 767 147 772 c 1
 155 777 165 781 175 781 c 0
 187 781 200 776 209 764 c 0
 217 753 220 743 220 733 c 0
 220 708 198 688 173 688 c 0x9fac
173 502 m 0
 145 502 125 527 125 549 c 0
 125 565 133 582 148 591 c 0
 150 592 159 596 151 590 c 1
 140 589 149 580 147 585 c 1
 155 591 166 594 176 594 c 0
 188 594 200 589 209 578 c 0
 217 567 220 557 220 547 c 0
 220 522 198 502 173 502 c 0
173 400 m 0
 144 400 125 425 125 448 c 0
 125 465 133 481 148 490 c 0
 150 491 159 494 151 488 c 1
 140 487 149 479 147 484 c 1
 155 489 165 493 175 493 c 0
 187 493 200 488 209 476 c 0
 217 465 220 455 220 445 c 0
 220 420 198 400 173 400 c 0
173 298 m 0
 144 298 125 323 125 346 c 0
 125 363 133 379 148 388 c 0
 150 389 159 392 151 386 c 1
 140 385 149 377 147 382 c 1
 155 387 165 391 175 391 c 0
 187 391 200 386 209 374 c 0
 217 363 220 353 220 343 c 0
 220 318 198 298 173 298 c 0
173 139 m 0
 144 139 125 164 125 187 c 0
 125 204 133 220 148 229 c 0
 150 230 159 233 151 227 c 1
 140 226 149 218 147 223 c 1
 155 228 165 232 175 232 c 0
 187 232 200 227 209 215 c 0
 217 204 220 194 220 184 c 0
 220 159 198 139 173 139 c 0
173 -180 m 0
 144 -180 125 -155 125 -132 c 0
 125 -115 133 -99 148 -90 c 0
 150 -89 159 -86 151 -92 c 0
 150 -92 l 0xbf8c
 143 -92 135 -112 135 -127 c 0
 135 -149 160 -162 175 -162 c 0
 190 -162 204 -150 204 -132 c 0
 204 -112 191 -93 169 -93 c 0
 163 -93 159 -95 156 -102 c 1
 148 -102 149 -101 147 -96 c 1
 155 -91 165 -87 175 -87 c 0xdf8c
 187 -87 200 -92 209 -104 c 0
 217 -115 220 -125 220 -135 c 0
 220 -160 198 -180 173 -180 c 0
173 33 m 0
 144 33 125 58 125 81 c 0
 125 98 133 114 148 123 c 0
 150 124 159 127 151 121 c 1
 140 120 149 111 147 116 c 1
 155 122 166 125 176 125 c 0
 188 125 200 120 209 109 c 0
 217 98 220 88 220 78 c 0
 220 53 198 33 173 33 c 0
172 -74 m 0
 144 -74 125 -48 125 -26 c 0
 125 -9 133 7 148 16 c 0
 150 17 159 21 151 15 c 1
 140 14 149 5 147 10 c 1
 155 16 166 19 176 19 c 0
 188 19 200 14 209 3 c 0
 217 -8 220 -18 220 -28 c 0
 220 -54 197 -74 172 -74 c 0
EndSplineSet
Validated: 1
EndChar

StartChar: z
Encoding: 122 122 22
Width: 264
VWidth: -2419
Flags: W
HStem: -180 93<147.376 208.575> -74 93<148.099 208.576> 33 92<148.099 208.576> 139 93<147.376 208.575> 298 93<147.376 208.575> 400 93<147.376 208.575> 502 92<148.099 208.576> 595 93<62.3772 128.063> 688 93<147.376 208.575>
VStem: 40 96<603.433 677.025> 125 95<-171.567 -104.515 -65.6792 2.48511 41.4331 108.485 147.433 214.485 306.433 373.485 408.433 475.485 510.387 577.485 696.433 763.485>
LayerCount: 2
Fore
SplineSet
88 595 m 0xff40
 59 595 40 620 40 643 c 0xff40
 40 660 48 676 63 685 c 0
 65 686 74 689 66 683 c 1
 55 682 64 674 62 679 c 1
 70 684 81 688 91 688 c 0
 104 688 116 683 125 671 c 0xff20
 133 661 136 650 136 640 c 0
 136 614 113 595 88 595 c 0xff40
173 688 m 0xfea0
 144 688 125 713 125 736 c 0
 125 753 133 769 148 778 c 0
 150 779 159 782 151 776 c 1
 140 775 149 767 147 772 c 1
 155 777 165 781 175 781 c 0
 187 781 200 776 209 764 c 0
 217 753 220 743 220 733 c 0
 220 708 198 688 173 688 c 0xfea0
173 502 m 0
 145 502 125 527 125 549 c 0
 125 565 133 582 148 591 c 0
 150 592 159 596 151 590 c 1
 140 589 149 580 147 585 c 1
 155 591 166 594 176 594 c 0
 188 594 200 589 209 578 c 0
 217 567 220 557 220 547 c 0
 220 522 198 502 173 502 c 0
173 400 m 0
 144 400 125 425 125 448 c 0
 125 465 133 481 148 490 c 0
 150 491 159 494 151 488 c 1
 140 487 149 479 147 484 c 1
 155 489 165 493 175 493 c 0
 187 493 200 488 209 476 c 0
 217 465 220 455 220 445 c 0
 220 420 198 400 173 400 c 0
173 298 m 0
 144 298 125 323 125 346 c 0
 125 363 133 379 148 388 c 0
 150 389 159 392 151 386 c 1
 140 385 149 377 147 382 c 1
 155 387 165 391 175 391 c 0
 187 391 200 386 209 374 c 0
 217 363 220 353 220 343 c 0
 220 318 198 298 173 298 c 0
173 139 m 0
 144 139 125 164 125 187 c 0
 125 204 133 220 148 229 c 0
 150 230 159 233 151 227 c 1
 140 226 149 218 147 223 c 1
 155 228 165 232 175 232 c 0
 187 232 200 227 209 215 c 0
 217 204 220 194 220 184 c 0
 220 159 198 139 173 139 c 0
173 33 m 0
 144 33 125 58 125 81 c 0
 125 98 133 114 148 123 c 0
 150 124 159 127 151 121 c 1
 140 120 149 111 147 116 c 1
 155 122 166 125 176 125 c 0
 188 125 200 120 209 109 c 0
 217 98 220 88 220 78 c 0
 220 53 198 33 173 33 c 0
172 -74 m 0
 144 -74 125 -48 125 -26 c 0
 125 -9 133 7 148 16 c 0
 150 17 159 21 151 15 c 1
 140 14 149 5 147 10 c 1
 155 16 166 19 176 19 c 0
 188 19 200 14 209 3 c 0
 217 -8 220 -18 220 -28 c 0
 220 -54 197 -74 172 -74 c 0
173 -180 m 0
 144 -180 125 -155 125 -132 c 0
 125 -115 133 -99 148 -90 c 0
 150 -89 159 -86 151 -92 c 1
 140 -93 149 -101 147 -96 c 1
 155 -91 165 -87 175 -87 c 0
 187 -87 200 -92 209 -104 c 0
 217 -115 220 -125 220 -135 c 0
 220 -160 198 -180 173 -180 c 0
EndSplineSet
Validated: 1
EndChar

StartChar: X
Encoding: 88 88 23
Width: 265
VWidth: -2419
Flags: W
HStem: -180 93<148.376 209.575> -74 18<150.716 196.173> 12 7<165.106 187.17> 33 92<149.099 209.576> 139 93<148.376 209.575> 298 93<148.376 209.575> 400 93<148.376 209.575> 502 92<149.099 209.576> 595 93<63.3772 129.063> 688 93<148.376 209.575>
VStem: 41 96<603.433 677.025> 126 10<-36.5108 -3.91954> 205 16<-46.1744 -1.53681>
LayerCount: 2
Fore
SplineSet
89 595 m 0xffa8
 60 595 41 620 41 643 c 0xffa8
 41 660 49 676 64 685 c 0
 66 686 75 689 67 683 c 1
 56 682 65 674 63 679 c 1
 71 684 82 688 92 688 c 0
 105 688 117 683 126 671 c 0xff98
 134 661 137 650 137 640 c 0
 137 614 114 595 89 595 c 0xffa8
174 688 m 0xff58
 145 688 126 713 126 736 c 0
 126 753 134 769 149 778 c 0
 151 779 160 782 152 776 c 1
 141 775 150 767 148 772 c 1
 156 777 166 781 176 781 c 0
 188 781 201 776 210 764 c 0
 218 753 221 743 221 733 c 0
 221 708 199 688 174 688 c 0xff58
174 502 m 0
 146 502 126 527 126 549 c 0
 126 565 134 582 149 591 c 0
 151 592 160 596 152 590 c 1
 141 589 150 580 148 585 c 1
 156 591 167 594 177 594 c 0
 189 594 201 589 210 578 c 0
 218 567 221 557 221 547 c 0
 221 522 199 502 174 502 c 0
174 400 m 0
 145 400 126 425 126 448 c 0
 126 465 134 481 149 490 c 0
 151 491 160 494 152 488 c 1
 141 487 150 479 148 484 c 1
 156 489 166 493 176 493 c 0
 188 493 201 488 210 476 c 0
 218 465 221 455 221 445 c 0
 221 420 199 400 174 400 c 0
174 298 m 0
 145 298 126 323 126 346 c 0
 126 363 134 379 149 388 c 0
 151 389 160 392 152 386 c 1
 141 385 150 377 148 382 c 1
 156 387 166 391 176 391 c 0
 188 391 201 386 210 374 c 0
 218 363 221 353 221 343 c 0
 221 318 199 298 174 298 c 0
174 139 m 0
 145 139 126 164 126 187 c 0
 126 204 134 220 149 229 c 0
 151 230 160 233 152 227 c 1
 141 226 150 218 148 223 c 1
 156 228 166 232 176 232 c 0
 188 232 201 227 210 215 c 0
 218 204 221 194 221 184 c 0
 221 159 199 139 174 139 c 0
176 -56 m 0
 191 -56 205 -43 205 -25 c 0
 205 -15 202 -5 195 2 c 0
 192 5 185 12 177 12 c 27
 169 12 157 4 157 4 c 1
 149 4 150 5 148 10 c 1
 156 16 167 19 177 19 c 0
 189 19 201 14 210 3 c 0
 218 -8 221 -18 221 -28 c 0
 221 -54 198 -74 173 -74 c 0
 145 -74 126 -48 126 -26 c 0
 126 -9 134 7 149 16 c 0
 151 17 160 21 152 15 c 0
 151 15 l 0
 144 15 136 -5 136 -20 c 0
 136 -42 158 -56 176 -56 c 0
174 33 m 0
 145 33 126 58 126 81 c 0
 126 98 134 114 149 123 c 0
 151 124 160 127 152 121 c 1
 141 120 150 111 148 116 c 1
 156 122 167 125 177 125 c 0
 189 125 201 120 210 109 c 0
 218 98 221 88 221 78 c 0
 221 53 199 33 174 33 c 0
174 -180 m 0
 145 -180 126 -155 126 -132 c 0
 126 -115 134 -99 149 -90 c 0
 151 -89 160 -86 152 -92 c 1
 141 -93 150 -101 148 -96 c 1
 156 -91 166 -87 176 -87 c 0
 188 -87 201 -92 210 -104 c 0
 218 -115 221 -125 221 -135 c 0
 221 -160 199 -180 174 -180 c 0
EndSplineSet
Validated: 1
EndChar

StartChar: Z
Encoding: 90 90 24
Width: 264
VWidth: -2419
Flags: W
HStem: -180 18<172 195.873> -94 7<173.125 185.213> -74 93<148.099 208.576> 33 92<148.099 208.576> 139 93<147.376 208.575> 298 93<147.376 208.575> 400 93<147.376 208.575> 502 92<148.099 208.576> 595 93<62.3772 128.063> 688 93<147.376 208.575>
VStem: 40 96<603.433 677.025> 125 47<-161.986 -97.9688> 204 16<-152.659 -108.734>
LayerCount: 2
Fore
SplineSet
88 595 m 0xffa8
 59 595 40 620 40 643 c 0xffa8
 40 660 48 676 63 685 c 0
 65 686 74 689 66 683 c 1
 55 682 64 674 62 679 c 1
 70 684 81 688 91 688 c 0
 104 688 116 683 125 671 c 0xff98
 133 661 136 650 136 640 c 0
 136 614 113 595 88 595 c 0xffa8
173 688 m 0xff58
 144 688 125 713 125 736 c 0
 125 753 133 769 148 778 c 0
 150 779 159 782 151 776 c 1
 140 775 149 767 147 772 c 1
 155 777 165 781 175 781 c 0
 187 781 200 776 209 764 c 0
 217 753 220 743 220 733 c 0
 220 708 198 688 173 688 c 0xff58
173 502 m 0
 145 502 125 527 125 549 c 0
 125 565 133 582 148 591 c 0
 150 592 159 596 151 590 c 1
 140 589 149 580 147 585 c 1
 155 591 166 594 176 594 c 0
 188 594 200 589 209 578 c 0
 217 567 220 557 220 547 c 0
 220 522 198 502 173 502 c 0
173 400 m 0
 144 400 125 425 125 448 c 0
 125 465 133 481 148 490 c 0
 150 491 159 494 151 488 c 1
 140 487 149 479 147 484 c 1
 155 489 165 493 175 493 c 0
 187 493 200 488 209 476 c 0
 217 465 220 455 220 445 c 0
 220 420 198 400 173 400 c 0
173 298 m 0
 144 298 125 323 125 346 c 0
 125 363 133 379 148 388 c 0
 150 389 159 392 151 386 c 1
 140 385 149 377 147 382 c 1
 155 387 165 391 175 391 c 0
 187 391 200 386 209 374 c 0
 217 363 220 353 220 343 c 0
 220 318 198 298 173 298 c 0
173 139 m 0
 144 139 125 164 125 187 c 0
 125 204 133 220 148 229 c 0
 150 230 159 233 151 227 c 1
 140 226 149 218 147 223 c 1
 155 228 165 232 175 232 c 0
 187 232 200 227 209 215 c 0
 217 204 220 194 220 184 c 0
 220 159 198 139 173 139 c 0
173 -180 m 0
 144 -180 125 -155 125 -132 c 0
 125 -115 133 -99 148 -90 c 0
 150 -89 159 -86 151 -92 c 1
 137 -94 151 -101 147 -96 c 1
 155 -91 165 -87 175 -87 c 0
 187 -87 200 -92 209 -104 c 0
 217 -115 220 -125 220 -135 c 0
 220 -160 198 -180 173 -180 c 0
174 -162 m 0
 191 -162 204 -150 204 -132 c 0
 204 -112 194 -96 173 -94 c 1
 173 -129 172 -139 172 -162 c 0
 173 -162 173 -162 174 -162 c 0
173 33 m 0
 144 33 125 58 125 81 c 0
 125 98 133 114 148 123 c 0
 150 124 159 127 151 121 c 1
 140 120 149 111 147 116 c 1
 155 122 166 125 176 125 c 0
 188 125 200 120 209 109 c 0
 217 98 220 88 220 78 c 0
 220 53 198 33 173 33 c 0
172 -74 m 0
 144 -74 125 -48 125 -26 c 0
 125 -9 133 7 148 16 c 0
 150 17 159 21 151 15 c 1
 140 14 149 5 147 10 c 1
 155 16 166 19 176 19 c 0
 188 19 200 14 209 3 c 0
 217 -8 220 -18 220 -28 c 0
 220 -54 197 -74 172 -74 c 0
EndSplineSet
Validated: 1
EndChar
